<svg width="42" height="42" viewBox="0 0 42 42" fill="none" xmlns="http://www.w3.org/2000/svg">
<g clip-path="url(#clip0_79_478)">
<path d="M0 20.16C0 10.6565 0 5.90473 2.95236 2.95236C5.90473 0 10.6565 0 20.16 0H21.84C31.3435 0 36.0952 0 39.0477 2.95236C42 5.90473 42 10.6565 42 20.16V21.84C42 31.3435 42 36.0952 39.0477 39.0477C36.0952 42 31.3435 42 21.84 42H20.16C10.6565 42 5.90473 42 2.95236 39.0477C0 36.0952 0 31.3435 0 21.84V20.16Z" fill="#68A39C"/>
<path d="M22.3478 30.2574C12.7753 30.2574 7.31539 23.6949 7.08789 12.7749H11.8829C12.0404 20.7899 15.5753 24.1849 18.3753 24.8849V12.7749H22.8905V19.6874C25.6555 19.3899 28.5601 16.2399 29.5401 12.7749H34.0552C33.3027 17.0449 30.1527 20.1949 27.9127 21.4899C30.1527 22.5399 33.7404 25.2874 35.1054 30.2574H30.1352C29.0677 26.9324 26.408 24.3599 22.8905 24.0099V30.2574H22.3478Z" fill="white"/>
</g>
<defs>
<clipPath id="clip0_79_478">
<rect width="42" height="42" fill="white"/>
</clipPath>
</defs>
</svg>
