<svg width="166" height="152" viewBox="0 0 166 152" fill="none" xmlns="http://www.w3.org/2000/svg">
<g clip-path="url(#clip0_115_62)">
<mask id="mask0_115_62" style="mask-type:luminance" maskUnits="userSpaceOnUse" x="29" y="0" width="137" height="152">
<path d="M29 0H166V151.712H29V0Z" fill="white"/>
</mask>
<g mask="url(#mask0_115_62)">
<path d="M79.0566 120.509C78.9583 120.428 78.8499 120.36 78.7342 120.308C78.6804 120.29 78.6085 120.253 78.5548 120.234L78.2505 120.161L77.7131 120.069C76.2984 119.867 74.9375 120.106 73.7204 120.528C72.52 120.951 71.3029 121.575 70.2636 122.603C69.2433 123.65 68.6166 124.972 68.2578 126.221C67.8113 127.837 67.6856 129.416 67.6137 130.995C67.56 132.592 67.6493 134.483 68.6166 136.21C69.5658 137.899 71.2491 138.983 72.825 139.478C74.4183 139.992 75.9942 140.121 77.5345 140.139H78.4117C78.799 140.135 79.1841 140.079 79.5577 139.974C80.22 139.79 80.8111 139.534 81.4023 139.24C81.6923 139.092 81.9734 138.927 82.2439 138.744L82.4407 138.615L82.5126 138.56L82.6375 138.45C82.8169 138.303 82.96 138.12 83.1038 137.918L83.2105 137.734L83.2824 137.899L83.4262 138.248L83.623 138.67L83.981 139.368C84.3472 140.052 84.7414 140.72 85.1626 141.369C86.0229 142.683 87.0132 143.902 88.1175 145.006C90.3375 147.227 93.1669 148.88 96.1756 149.669C99.0586 150.386 101.834 151.157 104.878 151.56C107.242 151.891 109.749 151.781 112.095 151.175C112.681 151.032 113.261 150.86 113.832 150.661L114.674 150.349C114.978 150.22 115.336 150.073 115.641 149.871C116.241 149.489 116.774 149.005 117.217 148.439C117.324 148.292 117.431 148.163 117.521 148.017L117.629 147.833C117.7 147.704 117.753 147.576 117.807 147.448C117.968 147.374 118.219 147.502 118.434 147.521L119.652 147.742C120.583 147.907 121.514 148.053 122.445 148.163C124.075 148.347 125.722 148.476 127.424 148.347C129.107 148.2 130.862 147.907 132.456 146.897C134.013 145.905 135.32 144.363 135.554 142.196C135.643 141.112 135.213 139.974 134.497 139.203C133.781 138.431 132.903 138.009 132.098 137.715C131.291 137.421 130.522 137.238 129.787 137.054C129.161 136.908 128.588 136.614 127.961 136.228C127.334 135.861 126.689 135.42 125.973 135.016C125.794 134.906 125.615 134.833 125.436 134.741C125.31 134.685 125.238 134.649 125.149 134.612C124.965 134.543 124.772 134.5 124.576 134.483H124.29L124.433 134.189L124.702 133.602C124.845 133.309 125.203 132.39 125.472 131.619C126.022 130.05 126.458 128.442 126.779 126.808C127.387 123.576 127.406 120.308 127.191 117.149C126.94 113.863 126.403 110.741 125.776 107.73C125.149 104.718 124.415 101.835 123.627 99.0439C123.251 97.6487 122.75 96.2713 122.481 95.0226C122.217 93.7428 122.085 92.438 122.087 91.1298C122.087 88.3759 122.499 85.5845 123.126 82.7753C124.218 87.1084 125.651 90.9833 127.101 94.7653C128.104 97.1708 129.662 99.7969 132.313 100.972C135.034 102.166 138.079 101.615 140.299 100.018C142.555 98.3463 143.808 95.7389 144.131 93.1869C144.471 90.5787 143.773 88.0633 142.842 85.9883C142.394 84.9602 141.803 83.8954 141.355 83.0871C141.14 82.7012 140.925 82.3341 140.71 81.949C140.495 81.583 140.303 81.2026 140.137 80.8102C140.013 80.4797 139.654 79.7633 140.174 80.2957C140.28 80.3698 140.388 80.461 140.442 80.4984C141.068 80.9575 141.678 81.3613 142.323 81.6918L143.146 82.0955C143.54 82.2795 143.934 82.4448 144.328 82.6279C145.116 82.9584 145.922 83.2344 146.691 83.4729C149.825 84.4091 152.869 84.593 155.502 84.2438C158.313 83.8954 160.802 82.8119 162.629 81.4345C163.542 80.7735 164.402 79.9652 164.939 78.9371C165.476 77.9089 165.548 76.8075 165.423 75.9438C165.136 74.1814 164.384 73.1712 163.882 72.5289C163.363 71.9225 162.987 71.7026 162.844 71.7759C162.486 71.2802 162.056 70.821 161.644 70.3432C161.483 70.086 161.322 69.8288 161.107 69.5357C160.635 69.0084 160.17 68.4757 159.71 67.9377C158.582 66.7997 157.113 65.533 155.162 64.1923C152.8 62.6705 150.327 61.3383 147.766 60.2075C147.014 59.8583 146.226 59.5465 145.402 59.1973C144.615 58.8855 143.791 58.555 142.967 58.2245C141.409 57.6181 139.798 56.9758 138.114 56.3148C134.783 54.9741 131.22 53.4868 127.961 51.3198C126.241 50.3283 125.185 48.9697 122.75 47.2618C120.493 45.7933 117.861 44.9117 115.265 44.5812C112.65 44.2694 110.018 44.4526 107.511 45.0403C105.022 45.628 102.604 46.6749 100.473 47.7763C99.3985 48.3453 98.0739 49.043 96.4798 49.8692C94.9403 50.6409 93.1669 51.4484 91.1618 51.8709C90.66 51.9808 90.1589 52.0362 89.6033 52.0915C89.0304 52.1461 88.2424 52.1461 87.2577 52.4774C86.2374 52.8258 85.3238 53.6154 84.7864 54.4604C84.2316 55.3046 83.9273 56.1675 83.6942 56.9937C82.8888 60.2263 83.0137 63.8797 84.2846 67.4233C84.9625 69.2758 85.9509 70.9915 87.2047 72.4923C88.5119 74.0528 89.9977 75.1729 91.2693 76.3484C92.5409 77.5051 93.6157 78.7352 93.92 80.0572C94.2606 81.3979 93.8307 82.7753 92.8278 84.1152C92.684 84.3171 92.5235 84.501 92.3623 84.7029C92.2366 84.8316 92.1291 84.9789 92.0042 85.1067C91.8968 85.2174 91.7711 85.3273 91.6281 85.4559C91.4987 85.3244 91.379 85.1832 91.27 85.0334L91.0188 84.7396C90.9071 84.6023 90.7999 84.4614 90.6971 84.3171C90.5003 84.024 90.2671 83.7668 90.0704 83.4542C89.2461 82.2608 88.4945 80.9022 87.7603 79.4328C85.6826 75.3748 83.8206 70.3986 80.1314 66.4325C79.1285 65.4964 78.0007 64.3762 75.9594 64.2289C75.4575 64.2289 74.9209 64.3022 74.4554 64.5228C73.9354 64.7434 73.7386 64.9453 73.3806 65.1464C72.7357 65.6429 72.1271 66.2852 71.7328 67.0935C70.9812 68.746 71.178 70.3806 71.4467 71.6847C71.751 73.0247 72.1809 74.2001 72.6282 75.3748C73.4161 77.5051 74.4546 79.6721 75.5476 82.0223C76.6754 84.2992 77.9114 86.6127 79.2186 89.0548C79.8453 90.2482 80.5258 91.5157 81.1881 92.801C81.5105 93.4254 81.8148 94.0677 82.1372 94.7108C82.4241 95.2985 82.7458 96.0507 82.8533 96.3812C82.8533 96.4186 82.8896 96.4732 82.8533 96.5098L82.6027 97.1895L81.9223 99.2092C81.4942 100.573 81.112 101.951 80.7763 103.341C80.0951 106.132 79.6485 108.979 79.3609 111.88C79.2204 113.333 79.125 114.79 79.0748 116.25V119.885L79.1285 120.326V120.547C79.1285 120.547 79.0755 120.492 79.021 120.473L79.0566 120.509Z" fill="white"/>
<path d="M96.3363 51.1733C93.5433 53.0098 89.9253 52.8071 87.6334 53.6334C85.3415 54.4597 84.0343 56.8106 84.1237 60.2996C84.2311 63.7886 84.2311 67.9931 87.2217 71.4821C90.2114 74.9711 93.0234 76.6049 93.9188 78.7719C94.8142 80.9388 93.9188 83.0871 93.0234 84.611C92.1279 86.1536 89.7285 84.9236 88.0633 81.5266C86.4156 78.1475 83.1033 69.6823 80.5601 67.2222C78.0169 64.7614 75.7614 63.8431 73.8085 65.0739C71.8572 66.304 69.1536 69.2231 73.8085 77.6884C78.465 86.1536 82.6553 93.8471 82.9595 95.5371C83.2646 97.2262 80.1128 104.149 79.9516 110.007C79.8078 115.846 79.1992 119.702 79.1992 120.161C79.1992 120.62 74.2392 119.848 70.8006 122.621C67.3627 125.395 67.5232 131.086 68.4194 134.006C69.3148 136.925 72.9139 141.553 77.7308 140.011C82.5478 138.468 82.6908 137.403 82.9777 137.862C83.2646 138.322 87.6334 148.017 95.889 149.559C104.144 151.101 112.704 152.019 115.55 149.871C118.398 147.723 119.007 147.558 120.207 147.723C121.407 147.888 129.661 149.871 133.709 145.869C137.756 141.865 135.213 138.487 134.317 137.862C133.422 137.238 127.405 135.402 125.758 135.09C124.11 134.777 124.701 132.629 125.901 130.315C127.101 128.002 127.996 119.243 127.101 115.074C126.205 110.906 122.892 96.7671 122.606 92.911C122.302 89.0549 122.911 83.5275 123.054 82.7566C123.197 81.9857 125.901 91.3684 126.958 94.6001C128.014 97.8319 131.56 102.386 137.022 101.211C140.621 100.439 143.772 97.2075 143.772 92.4339C143.772 87.6596 139.868 81.0487 139.564 80.4244C139.26 79.8 143.325 81.967 145.868 83.197C148.41 84.4278 157.131 86.2822 162.969 81.3426C168.806 76.403 165.064 71.1882 161.912 68.7274C158.761 66.2673 155.162 63.1821 151.849 61.8055C148.536 60.4282 130.682 54.8821 127.692 52.7339C124.683 50.5856 121.693 46.1238 114.781 45.4994C107.869 44.8751 100.365 48.474 96.3182 51.1367L96.3363 51.1733Z" fill="white"/>
<path d="M91.9495 87.439C91.9495 87.439 92.2901 86.9066 93.0062 86.025C93.6685 85.1434 94.8326 83.8581 95.1724 81.8937C95.3336 80.9568 95.2262 79.8367 94.7433 78.7353C94.2414 77.6518 93.3823 76.6236 92.3613 75.6321C91.341 74.6219 90.1405 73.6491 88.9946 72.4549C87.8668 71.2436 86.8457 69.7743 86.1115 68.0851C85.7302 67.234 85.4247 66.3491 85.1987 65.4411C84.9655 64.5595 84.8225 63.6046 84.715 62.6318C84.5712 60.648 84.6431 58.5364 85.4848 56.3515C85.9147 55.268 86.8101 54.2391 87.9742 54.0014C89.102 53.7628 90.1049 53.8727 91.0897 53.6896C93.0236 53.4136 95.0112 52.6061 97.017 51.5959C98.0419 51.0533 99.0688 50.5147 100.098 49.98C101.118 49.4468 102.156 48.9144 103.231 48.4366C105.362 47.4638 107.672 46.7841 110.054 46.5089C112.435 46.1971 114.906 46.3437 117.27 46.9868C119.634 47.629 121.908 48.8419 123.752 50.5303C125.418 51.9443 127.227 53.2484 129.196 54.2212C130.145 54.7723 131.166 55.2127 132.151 55.6718C133.1 56.1317 134.121 56.4981 135.123 56.9026C136.162 57.2877 137.183 57.6743 138.203 58.0407C139.26 58.4078 140.317 58.7936 141.319 59.1429C143.361 59.8584 145.384 60.5748 147.372 61.3278C149.36 62.0807 151.311 62.8704 153.174 63.7886C154.105 64.2469 155.036 64.6881 155.913 65.2384C156.397 65.5323 156.881 65.7895 157.346 66.1021C157.794 66.4326 158.223 66.7631 158.653 67.0749C160.337 68.3424 161.644 69.7563 162.701 71.0784C163.865 72.4923 164.885 74.2181 165.011 76.2565C165.064 77.248 164.76 78.3494 164.151 79.1577C163.542 79.984 162.79 80.5897 162.02 81.0675C160.516 82.0769 158.958 82.6834 157.507 83.0505C154.66 83.7668 151.813 83.7481 149.253 83.289C147.109 82.8806 145.03 82.17 143.074 81.1774C141.463 80.3698 140.281 79.6169 139.493 79.1211C137.991 78.1128 136.539 77.028 135.142 75.8706C133.806 74.7557 132.504 73.5984 131.237 72.4004C130.092 71.3169 128.999 70.288 127.996 69.3152C127.495 68.856 126.994 68.4156 126.528 67.9744C126.277 67.7546 126.027 67.5527 125.776 67.3321C125.528 67.1351 125.283 66.9331 125.042 66.7265C123.161 65.1839 121.747 64.3568 120.691 63.8252C119.652 63.3108 119.007 63.1089 119.025 63.0356C119.025 62.981 119.759 63.0535 121.031 63.5501C122.284 64.0271 124.003 65.0186 125.686 66.3406C125.901 66.5059 126.098 66.6711 126.331 66.8364C126.546 67.0204 126.779 67.2035 127.012 67.3875C127.495 67.81 128.015 68.2317 128.534 68.6908C129.634 69.7 130.738 70.704 131.847 71.7027C133.064 72.8041 134.174 73.8144 135.518 74.9158C136.975 76.1155 138.487 77.2432 140.048 78.2949C141.552 79.2131 144.525 81.3247 149.199 82.2975C151.437 82.72 154.266 82.9219 157.364 82.1323C158.868 81.7464 160.319 81.1408 161.608 80.2779C162.897 79.4516 164.061 78.3494 164.151 76.7156C164.241 75.1177 163.435 73.3552 162.235 71.8493C160.928 70.2155 159.531 68.7461 158.027 67.6447C157.292 67.0757 156.558 66.5246 155.788 66.12C154.938 65.586 154.059 65.102 153.156 64.6702C151.348 63.7332 149.431 62.9436 147.462 62.1727C145.51 61.401 143.504 60.6855 141.481 59.9512C140.478 59.5833 139.475 59.2341 138.472 58.8677C137.469 58.4998 136.449 58.1147 135.428 57.7289C134.407 57.3064 133.369 56.8839 132.312 56.4427C131.309 55.9477 130.288 55.5253 129.304 54.9742C128.337 54.4238 127.334 53.9273 126.421 53.2671C125.955 52.9545 125.471 52.6606 125.024 52.3114L123.717 51.2279C121.926 49.5388 119.849 48.2901 117.539 47.5924C115.264 46.8948 112.847 46.7116 110.519 46.9501C108.201 47.1951 105.932 47.7955 103.786 48.7312C102.729 49.1904 101.691 49.7227 100.67 50.2364C99.7214 50.7509 98.7359 51.2654 97.7512 51.7977C95.7636 52.8259 93.6503 53.8361 91.2335 54.2399C90.0694 54.4605 88.9052 54.3685 88.0098 54.607C87.097 54.8455 86.4703 55.6172 86.0941 56.4435C85.3955 58.1147 85.1987 60.1889 85.3236 62.0987C85.3773 63.0722 85.5385 64.045 85.7716 64.982C85.9859 65.877 86.2798 66.7499 86.6497 67.5894C87.3475 69.224 88.3149 70.6372 89.4063 71.8126C90.4993 72.9881 91.7164 73.9609 92.773 75.0078C93.8297 76.0367 94.7607 77.1381 95.3336 78.3861C95.8892 79.6348 95.9967 80.9755 95.7454 82.1323C95.1906 84.3912 93.919 85.5659 93.203 86.3555C92.4332 87.1272 91.9677 87.4577 91.9139 87.3837L91.9495 87.439Z" fill="#014E72"/>
<path d="M136.503 75.9991C136.503 75.9991 136.718 76.1465 136.861 76.477C137.058 76.954 137.237 77.3578 137.47 77.8902C137.739 78.46 138.079 79.1943 138.527 80.0018C138.957 80.8288 139.493 81.7284 140.066 82.7378L140.496 83.5095C140.639 83.748 140.783 84.0052 140.944 84.2804C141.248 84.8128 141.571 85.4005 141.875 86.0615C142.161 86.7412 142.341 87.421 142.538 88.0633C142.699 88.7063 142.914 89.3853 143.057 90.1195C143.11 90.4875 143.182 90.8725 143.201 91.2763C143.201 91.6621 143.201 92.048 143.182 92.4518C143.129 93.2235 142.967 94.0131 142.734 94.784C142.503 95.5603 142.171 96.3014 141.75 96.9876C141.313 97.6859 140.783 98.3167 140.174 98.8607C139.619 99.3565 138.974 99.7415 138.294 100.035C137.957 100.186 137.61 100.308 137.255 100.403C136.914 100.495 136.556 100.568 136.198 100.623C135.84 100.678 135.464 100.696 135.088 100.696C134.713 100.696 134.336 100.66 133.978 100.587C133.261 100.458 132.57 100.203 131.936 99.8335C131.319 99.4751 130.758 99.0232 130.271 98.4928C130.036 98.2368 129.815 97.9671 129.609 97.6852C129.395 97.3887 129.203 97.0757 129.036 96.7491C128.713 96.1247 128.498 95.5549 128.266 95.0591C128.02 94.5177 127.781 93.973 127.549 93.4254C127.318 92.8795 127.115 92.3217 126.941 91.7541C126.779 91.2217 126.618 90.6893 126.475 90.2482C126.188 89.3486 125.848 88.5224 125.58 87.7328C125.061 86.1722 124.72 85.0334 124.541 84.4457C124.38 83.8953 124.219 83.3255 124.058 82.7565C123.896 82.1875 123.771 81.5997 123.663 81.104C123.556 80.5895 123.485 80.1125 123.413 79.6534C123.377 79.4328 123.341 79.213 123.323 79.0103L123.288 78.6798C123.288 78.5699 123.288 78.4779 123.252 78.368C123.216 77.5597 123.252 77.0093 123.27 76.6048C123.305 76.2197 123.341 75.9991 123.413 75.9812C123.485 75.9812 123.574 76.1831 123.663 76.6235C123.753 77.1559 123.843 77.6703 123.95 78.3314L124.004 78.5886L124.058 78.8637C124.111 79.0656 124.147 79.2675 124.201 79.4881C124.308 79.9285 124.416 80.4064 124.541 80.8834C124.666 81.3979 124.792 81.8749 124.953 82.4073C125.114 82.9584 125.293 83.5648 125.472 84.1705C125.634 84.7395 125.956 85.8417 126.439 87.3469C126.672 88.082 127.012 88.9449 127.334 89.973C127.478 90.45 127.639 90.9832 127.782 91.479C127.925 91.9747 128.105 92.4518 128.302 92.9842C128.517 93.4986 128.749 94.0497 129 94.6367C129.268 95.261 129.501 95.8675 129.77 96.3999C129.895 96.675 130.039 96.9143 130.2 97.1529C130.379 97.4101 130.575 97.6486 130.79 97.8871C131.219 98.3667 131.707 98.7865 132.241 99.1359C132.778 99.4851 133.387 99.7236 134.032 99.8701C134.354 99.9434 134.676 99.9988 134.999 99.9988C135.321 99.9988 135.661 99.9988 135.983 99.9621C136.324 99.9255 136.647 99.8702 136.986 99.7782C137.309 99.7049 137.649 99.595 137.954 99.4851C138.59 99.2398 139.187 98.8994 139.726 98.4749C140.318 97.9996 140.832 97.4292 141.248 96.7857C141.66 96.1426 141.983 95.445 142.215 94.7286C142.448 94.0123 142.591 93.2601 142.645 92.525C142.681 92.1579 142.681 91.7908 142.663 91.4236C142.663 91.0744 142.574 90.726 142.52 90.3768C142.394 89.6791 142.161 88.9994 141.965 88.2651C141.75 87.5675 141.553 86.9244 141.302 86.3741C141.052 85.823 140.729 85.2719 140.407 84.7395C140.246 84.4644 140.066 84.1884 139.923 83.932C139.762 83.6747 139.619 83.4175 139.476 83.1603C138.885 82.1508 138.33 81.2505 137.9 80.3876C137.504 79.654 137.157 78.8932 136.861 78.1108C136.647 77.4318 136.503 76.9353 136.467 76.5682C136.413 76.2197 136.432 76.0178 136.521 75.9991H136.503Z" fill="#014E72"/>
<path d="M117.038 142.434C117.038 142.434 117.163 142.14 117.503 141.828C117.861 141.517 118.363 141.039 118.953 140.414C119.544 139.809 120.171 138.964 120.87 137.954C121.55 136.944 122.231 135.732 122.876 134.355C123.036 134.006 123.197 133.657 123.341 133.29C123.484 132.941 123.627 132.574 123.77 132.189C124.039 131.417 124.29 130.591 124.576 129.691C124.845 128.792 125.149 127.928 125.364 127.065C125.561 126.239 125.705 125.32 125.759 124.348C125.776 123.852 125.848 123.356 125.848 122.842C125.865 122.346 125.883 121.85 125.919 121.336C125.919 120.326 125.919 119.316 125.848 118.288C125.794 117.26 125.687 116.213 125.579 115.166C125.454 114.119 125.329 113.073 125.167 112.026C125.042 111.071 124.863 110.135 124.702 109.18L124.433 107.766C124.344 107.307 124.236 106.848 124.129 106.389L123.807 104.994C123.699 104.516 123.573 104.039 123.466 103.598L122.768 100.898C122.538 100.023 122.288 99.1535 122.016 98.291C121.89 97.8685 121.747 97.4468 121.621 97.0243C121.478 96.5831 121.371 96.0695 121.281 95.6283C121.085 94.7287 121.048 93.9025 120.941 93.1861C120.87 92.3965 120.744 91.6069 120.744 90.7993C120.696 89.998 120.702 89.1943 120.762 88.3938C120.798 87.6229 120.923 86.9245 120.977 86.2822C121.138 85.0335 121.246 83.8401 121.425 82.72C121.783 80.553 122.159 78.9924 122.338 78.2028C122.517 77.4498 122.714 76.6969 122.893 75.9259C123.09 75.173 123.323 74.3826 123.538 73.759C123.753 73.098 123.95 72.4915 124.165 71.9225C124.272 71.6473 124.361 71.3722 124.469 71.115L124.612 70.7104L124.773 70.3253C125.082 69.6205 125.429 68.9337 125.812 68.2683C126.063 67.8279 126.224 67.5706 126.278 67.5893C126.349 67.6073 126.295 67.9198 126.134 68.4702C125.973 69.0212 125.687 69.8109 125.382 70.6738L125.275 71.0043L125.167 71.3722C125.096 71.6294 125.006 71.9046 124.917 72.1984C124.756 72.7854 124.576 73.3911 124.38 74.0528C124.183 74.7326 124.022 75.3561 123.842 76.0912C123.663 76.8255 123.466 77.633 123.269 78.478C123.09 79.231 122.732 80.7369 122.356 82.7932C122.177 83.8034 122.051 85.0148 121.854 86.4288C121.783 87.1272 121.658 87.8061 121.621 88.4858C121.568 89.1648 121.532 89.8445 121.568 90.5975C121.568 91.3504 121.658 92.1401 121.729 92.9842C121.854 93.8658 121.873 94.7654 122.051 95.5371C122.141 95.9221 122.195 96.308 122.302 96.6751L122.678 97.9426C122.911 98.8055 123.162 99.6871 123.395 100.568C123.61 101.468 123.842 102.368 124.057 103.286L124.361 104.645L124.666 106.022C124.773 106.499 124.881 106.958 124.971 107.454L125.221 108.887C125.364 109.841 125.544 110.796 125.669 111.751C125.83 112.816 125.955 113.863 126.063 114.928C126.17 115.992 126.295 117.039 126.332 118.086C126.421 119.132 126.403 120.161 126.421 121.189C126.421 121.703 126.385 122.217 126.367 122.713C126.367 123.191 126.332 123.668 126.295 124.164C126.265 125.178 126.139 126.186 125.919 127.175C125.687 128.167 125.4 129.03 125.167 129.838C124.934 130.627 124.702 131.453 124.433 132.262C124.308 132.666 124.146 133.069 123.985 133.474C123.842 133.859 123.663 134.226 123.502 134.594C122.857 136.026 122.159 137.293 121.443 138.358C120.709 139.404 120.028 140.268 119.329 140.929C118.649 141.571 118.094 141.975 117.682 142.214C117.27 142.453 117.038 142.526 117.002 142.453L117.038 142.434Z" fill="#014E72"/>
<path d="M116.446 145.979C116.446 145.979 116.59 145.85 116.805 145.832C117.019 145.832 117.342 145.869 117.718 145.923C118.112 145.997 118.578 146.07 119.115 146.162C119.652 146.254 120.261 146.364 120.941 146.474C121.102 146.493 121.282 146.53 121.443 146.566C121.604 146.566 121.765 146.603 121.962 146.622C122.32 146.658 122.696 146.676 123.126 146.731C123.43 146.787 123.968 146.897 124.326 146.97C124.702 147.043 125.114 147.025 125.544 147.025C125.776 147.025 125.991 147.025 126.206 147.007H126.868C127.298 146.989 127.764 147.007 128.194 146.915C128.641 146.86 129.089 146.768 129.519 146.658C129.949 146.548 130.396 146.419 130.808 146.217C131.184 146.052 131.542 145.869 131.883 145.629C132.061 145.519 132.223 145.409 132.366 145.262C132.51 145.134 132.653 144.987 132.778 144.84C132.903 144.693 133.046 144.528 133.154 144.363C133.279 144.197 133.387 144.032 133.494 143.867C133.691 143.536 133.852 143.169 133.96 142.82C134.049 142.453 134.085 142.104 134.067 141.755C134.067 141.59 134.014 141.425 133.978 141.259C133.924 141.094 133.87 140.91 133.799 140.745C133.673 140.433 133.494 140.139 133.279 139.955C133.031 139.748 132.753 139.581 132.456 139.46C132.115 139.313 131.847 139.202 131.542 139.075C131.238 138.946 130.969 138.835 130.701 138.762C130.181 138.597 129.662 138.541 129.178 138.432C128.509 138.277 127.845 138.093 127.191 137.88C126.868 137.771 126.528 137.661 126.188 137.532C125.848 137.421 125.526 137.256 125.257 137.128C124.971 136.981 124.719 136.852 124.487 136.706C124.378 136.631 124.264 136.564 124.147 136.504L123.985 136.393C123.985 136.393 123.896 136.32 123.824 136.283C123.449 135.971 123.234 135.696 123.072 135.512C122.929 135.328 122.839 135.2 122.876 135.144C122.911 135.09 123.054 135.09 123.287 135.2C123.52 135.292 123.824 135.494 124.183 135.678L124.326 135.751L124.469 135.824C124.576 135.879 124.702 135.916 124.81 135.971C125.06 136.081 125.329 136.191 125.597 136.301C125.884 136.412 126.152 136.522 126.457 136.632L127.478 136.963C127.8 137.073 128.444 137.293 129.321 137.513C129.751 137.624 130.307 137.697 130.916 137.899C131.22 138.009 131.524 138.138 131.811 138.266C132.169 138.432 132.384 138.524 132.725 138.67C133.046 138.835 133.405 139.019 133.727 139.313C134.085 139.625 134.318 140.047 134.461 140.433C134.533 140.635 134.587 140.819 134.64 141.002C134.694 141.204 134.748 141.425 134.766 141.645C134.801 142.086 134.766 142.545 134.622 142.985C134.493 143.414 134.306 143.822 134.067 144.197C133.96 144.381 133.817 144.565 133.691 144.73C133.566 144.914 133.422 145.079 133.279 145.244C133.118 145.409 132.975 145.575 132.796 145.721C132.623 145.872 132.437 146.008 132.241 146.126C131.865 146.364 131.47 146.584 131.059 146.731C130.611 146.952 130.146 147.043 129.68 147.172C129.215 147.283 128.748 147.393 128.283 147.448C127.817 147.539 127.352 147.539 126.905 147.576H126.224C126.045 147.576 125.83 147.594 125.579 147.613C125.149 147.613 124.702 147.686 124.237 147.613C123.842 147.539 123.323 147.466 123.036 147.41C122.678 147.374 122.285 147.356 121.908 147.337C121.693 147.337 121.514 147.301 121.335 147.301C121.156 147.283 120.977 147.245 120.798 147.227C120.174 147.143 119.553 147.038 118.936 146.915C118.38 146.805 117.915 146.713 117.521 146.584C117.127 146.474 116.841 146.364 116.643 146.254C116.446 146.162 116.357 146.07 116.375 145.979H116.446Z" fill="#014E72"/>
<path d="M87.9379 119.408C87.9379 119.408 88.5654 119.151 89.7469 119.316C90.9285 119.463 92.6118 120.014 94.4026 121.17C96.1397 122.309 98.163 124.072 99.9894 126.496C100.903 127.708 101.798 129.067 102.514 130.646C103.196 132.28 103.445 134.062 103.947 135.843C104.198 136.723 104.502 137.605 105.004 138.358C105.451 139.092 106.239 139.534 107.117 139.845C108.907 140.433 110.949 140.047 113.259 140.12C114.423 140.176 115.641 140.525 116.518 141.351C116.948 141.755 117.306 142.214 117.539 142.783C117.745 143.326 117.831 143.91 117.79 144.491C117.7 146.639 116.303 149.045 113.904 149.706C112.768 150.145 111.592 150.465 110.394 150.661C109.212 150.845 107.994 150.918 106.777 150.863C104.359 150.734 101.978 150.147 99.5958 149.577C97.232 149.008 94.7251 148.494 92.5043 147.19C90.2662 145.96 88.3678 144.124 86.792 142.086C85.3955 140.195 84.2851 138.12 83.4252 135.916C82.9787 134.832 82.6736 133.694 82.3512 132.574C82.0106 131.491 81.7964 130.371 81.5095 129.251C81.3127 128.093 81.044 126.955 80.901 125.798C80.7216 124.623 80.6141 123.429 80.5248 122.291C80.361 120.018 80.3312 117.737 80.4355 115.46C80.5248 113.202 80.7571 110.998 81.0796 108.831C81.2408 107.748 81.4384 106.683 81.6526 105.636C81.8675 104.498 82.19 103.341 82.4768 102.294C83.0854 100.201 83.7658 98.3649 84.3926 96.7303C84.4819 96.5285 84.3214 96.0327 84.1776 95.6289C83.999 95.2064 83.837 94.784 83.6046 94.3615C83.211 93.5173 82.7448 92.6903 82.28 91.864C81.3478 90.2085 80.4105 88.556 79.4681 86.9065C78.5901 85.3093 77.7666 83.8213 77.0332 82.4813C75.5822 79.8552 74.3113 77.2112 73.344 74.6771C72.4304 72.235 71.6788 69.7928 72.5379 67.7358C72.986 66.763 73.7558 66.1378 74.4181 65.7894C75.1167 65.3303 75.9402 65.3303 76.4594 65.4589C78.5371 66.0832 79.755 67.7358 80.8828 69.2417C81.9932 70.7843 82.9416 72.5288 83.6584 73.9794C84.4107 75.4667 85.0549 76.8986 85.6642 78.2027C85.9684 78.845 86.2727 79.4694 86.5596 80.0571C86.7208 80.3697 86.8639 80.6815 87.0251 80.9754C87.1863 81.2692 87.3294 81.5631 87.4906 81.8569C88.6547 84.0972 89.6394 85.5112 90.4092 86.4661C91.1616 87.4209 91.6627 87.898 91.6089 87.9712C91.5915 88.0079 91.4303 87.898 91.1616 87.6774C90.739 87.351 90.349 86.982 89.9975 86.576C89.0309 85.5657 87.8312 83.8953 86.7564 81.9489C86.6307 81.7096 86.4877 81.4711 86.3446 81.2139C86.2008 80.9566 86.0578 80.6815 85.9147 80.4063C85.6104 79.8186 85.288 79.1942 84.9481 78.5519C84.3033 77.2658 83.6046 75.8705 82.8704 74.3832C82.0832 72.8773 81.3301 71.5007 80.3098 70.068C79.7724 69.3703 79.235 68.5994 78.5727 67.9376C77.9104 67.2774 77.1225 66.6343 76.2626 66.4325C75.8865 66.3592 75.4391 66.3225 74.9555 66.6343C74.4006 66.9282 73.8451 67.406 73.5052 68.085C72.8066 69.499 73.3258 71.7392 74.1857 74.0714C75.0448 76.3849 76.2445 79.0656 77.9097 82.0768C78.7158 83.5461 79.5219 85.0334 80.328 86.5027C81.1515 87.9712 81.9394 89.3852 82.853 91.0011C83.3156 91.8313 83.7632 92.6702 84.1958 93.5173C84.6075 94.4535 85.1268 95.2431 85.288 96.5838C85.2698 97.1528 85.0912 97.2448 85.0193 97.5387L84.7332 98.2909C84.5364 98.7866 84.3744 99.3011 84.1958 99.7969C83.8378 100.788 83.5509 101.762 83.2466 102.698C82.9961 103.653 82.7274 104.571 82.5306 105.471C82.3156 106.499 82.1007 107.528 81.9394 108.593C81.58 110.743 81.341 112.914 81.2234 115.093C81.0622 117.296 81.1159 119.537 81.2234 121.795C81.3301 122.897 81.3665 124.017 81.5277 125.137C81.6526 126.257 81.8501 127.377 82.0651 128.479C82.2619 129.618 82.5662 130.738 82.8523 131.895C83.1747 132.996 83.4616 134.135 83.8733 135.218C84.6613 137.367 85.6823 139.459 87.0069 141.315C88.4453 143.388 90.2793 145.138 92.3969 146.456C94.5101 147.796 96.9095 148.347 99.3089 148.916C101.691 149.485 104.055 150.092 106.419 150.238C107.6 150.312 108.782 150.294 109.928 150.128C111.021 149.963 112.095 149.688 113.169 149.339C113.689 149.137 114.262 148.953 114.727 148.714C115.196 148.444 115.615 148.089 115.963 147.667C116.673 146.78 117.104 145.692 117.198 144.546C117.234 143.995 117.163 143.444 116.966 142.967C116.865 142.73 116.725 142.513 116.554 142.324C116.413 142.11 116.238 141.924 116.034 141.773C115.283 141.112 114.315 140.856 113.384 140.8C111.522 140.672 109.445 141.131 107.385 140.635C106.383 140.36 105.326 139.919 104.61 138.982C103.965 138.101 103.643 137.146 103.338 136.21C102.783 134.373 102.514 132.556 101.906 131.05C101.225 129.544 100.348 128.185 99.4701 127.01C97.68 124.623 95.7636 122.878 93.9372 121.648C92.1463 120.455 90.6423 119.94 89.5857 119.72C88.5472 119.481 87.9561 119.537 87.9561 119.408H87.9379Z" fill="#014E72"/>
<path d="M116.929 99.026C116.929 99.026 117.126 99.2279 117.216 99.6316C117.306 100.035 117.377 100.66 117.377 101.413C117.377 102.147 117.341 103.102 117.126 104.167C116.929 105.232 116.571 106.389 116.123 107.619C116.016 107.932 115.891 108.225 115.765 108.556C115.658 108.85 115.532 109.162 115.407 109.492C115.157 110.153 114.924 110.833 114.601 111.567C114.279 112.301 113.903 112.981 113.581 113.661C113.258 114.303 112.954 115.037 112.614 115.79C112.435 116.158 112.256 116.562 112.059 116.947C111.844 117.314 111.647 117.7 111.432 118.067C110.989 118.811 110.523 119.54 110.035 120.253C109.534 120.969 108.996 121.685 108.405 122.346C107.807 123.018 107.167 123.65 106.489 124.237C105.881 124.77 105.2 125.266 104.412 125.596C104.014 125.767 103.59 125.867 103.159 125.89C102.726 125.914 102.293 125.845 101.887 125.688C101.475 125.518 101.098 125.269 100.777 124.953C100.483 124.626 100.23 124.262 100.025 123.87C99.6607 123.113 99.4476 122.289 99.398 121.446C99.345 120.601 99.4517 119.812 99.5948 119.041C99.6848 118.655 99.756 118.269 99.8824 117.902C100.007 117.498 100.169 117.112 100.329 116.764C100.67 116.066 101.01 115.46 101.314 114.928C101.619 114.34 101.959 113.752 102.299 113.183C102.64 112.614 103.015 112.026 103.391 111.512C103.768 110.998 104.126 110.52 104.43 110.099C105.039 109.254 105.522 108.391 106.006 107.582C106.937 106.022 107.528 104.846 107.832 104.259C108.137 103.69 108.405 103.102 108.674 102.514C108.943 101.909 109.211 101.339 109.462 100.807C109.695 100.293 109.91 99.7969 110.125 99.3378C110.232 99.1172 110.322 98.8974 110.411 98.6768L110.554 98.3463C110.608 98.2363 110.644 98.1444 110.698 98.0345C111.091 97.2261 111.396 96.6937 111.593 96.3079C111.808 95.9221 111.933 95.7202 112.005 95.7389C112.076 95.7389 112.059 96.0327 111.933 96.5098C111.808 96.9876 111.575 97.6486 111.306 98.3829L111.217 98.6581L111.11 98.9519C111.038 99.1725 110.948 99.411 110.876 99.6503C110.686 100.161 110.489 100.669 110.286 101.174C110.053 101.725 109.856 102.202 109.587 102.827C109.337 103.414 109.05 104.057 108.71 104.718C108.405 105.306 107.797 106.481 106.866 108.005C106.418 108.739 105.881 109.657 105.164 110.631C104.824 111.09 104.448 111.567 104.108 112.045C103.768 112.503 103.445 112.981 103.105 113.514C102.765 114.046 102.442 114.634 102.084 115.258C101.708 115.919 101.332 116.543 101.046 117.149C100.902 117.443 100.759 117.755 100.67 118.049C100.544 118.38 100.473 118.728 100.365 119.095C100.221 119.812 100.097 120.546 100.115 121.281C100.132 122.015 100.276 122.768 100.58 123.447C100.723 123.779 100.903 124.09 101.135 124.366C101.368 124.641 101.637 124.88 101.941 125.027C102.245 125.174 102.603 125.284 102.961 125.284C103.32 125.284 103.678 125.229 104.018 125.119C104.717 124.88 105.362 124.44 105.97 123.944C106.651 123.393 107.296 122.805 107.869 122.163C108.459 121.52 108.979 120.822 109.48 120.124C109.964 119.408 110.447 118.71 110.859 117.957C111.074 117.59 111.271 117.223 111.468 116.856C111.664 116.507 111.808 116.14 111.987 115.772C112.309 115.037 112.614 114.248 112.99 113.477C113.348 112.724 113.706 112.045 113.974 111.402C114.243 110.778 114.476 110.08 114.709 109.419C114.834 109.07 114.959 108.739 115.067 108.409C115.192 108.078 115.3 107.766 115.407 107.454C115.855 106.224 116.177 105.104 116.392 104.075C116.607 103.065 116.679 102.166 116.714 101.394C116.73 100.819 116.748 100.243 116.768 99.6683C116.768 99.2824 116.804 99.0626 116.893 99.0439L116.929 99.026ZM82.7271 135.493C82.7271 135.493 82.8346 135.695 82.7271 135.934C82.6371 136.191 82.4221 136.504 82.1178 136.834C81.7571 137.239 81.3548 137.602 80.9181 137.918C80.417 138.285 79.8433 138.707 79.0561 138.982C78.8767 139.037 78.5906 139.092 78.4112 139.074H77.8209C77.4083 139.074 76.9784 139.092 76.5129 139.037C76.0474 138.982 75.6001 138.854 75.1702 138.744C74.6509 138.633 74.3285 138.579 73.8267 138.487C73.5764 138.443 73.3307 138.375 73.0925 138.285C72.8601 138.193 72.627 138.101 72.3946 137.991C71.9465 137.752 71.481 137.495 71.0693 137.165C70.6393 136.852 70.2631 136.448 69.9415 136.008C69.6202 135.563 69.3722 135.067 69.2073 134.539C69.046 134.062 68.956 133.565 68.8848 133.088C68.8485 132.849 68.8311 132.592 68.8129 132.354C68.8129 132.133 68.7948 131.895 68.7773 131.637V130.168C68.7948 129.691 68.8303 129.232 68.8848 128.755C68.9378 128.296 68.9923 127.818 69.0816 127.377C69.1172 127.157 69.1709 126.918 69.2254 126.698C69.2784 126.459 69.3677 126.221 69.4752 126C69.672 125.578 69.887 125.21 70.0664 124.88C70.2457 124.513 70.4599 124.164 70.7112 123.815C70.9618 123.485 71.2661 123.154 71.5893 122.915C71.8818 122.696 72.1934 122.505 72.5202 122.346C73.0751 122.052 73.6117 121.758 74.1491 121.556C75.2057 121.189 76.0293 121.097 76.441 121.079C76.8535 121.079 77.2471 121.079 77.6596 121.134C78.057 121.186 78.4437 121.304 78.8048 121.483C79.1454 121.63 79.4316 121.813 79.7003 122.015C79.8259 122.125 79.9515 122.217 80.059 122.328L80.2195 122.493C80.2195 122.493 80.3096 122.603 80.3633 122.676C80.7039 123.154 80.7925 123.539 80.8462 123.815C80.9 124.09 80.8825 124.237 80.8288 124.274C80.7569 124.311 80.6494 124.2 80.5064 123.98C80.3451 123.779 80.1483 123.448 79.8441 123.154L79.7184 123.044L79.5746 122.952L79.2529 122.732C79.0061 122.576 78.7414 122.453 78.465 122.365C78.1706 122.252 77.8637 122.178 77.5514 122.144C77.2108 122.107 76.8535 122.107 76.441 122.125C76.083 122.125 75.3851 122.199 74.4534 122.493C74.0061 122.64 73.4868 122.897 72.9138 123.191C72.6299 123.332 72.3548 123.491 72.0903 123.668C71.8283 123.853 71.5931 124.076 71.3917 124.329C71.1667 124.615 70.969 124.922 70.8013 125.247C70.6038 125.614 70.3706 125.963 70.2094 126.312C70.1197 126.481 70.0479 126.66 69.9952 126.845L69.834 127.469C69.7439 127.891 69.6728 128.332 69.6009 128.773C69.5431 129.224 69.4951 129.677 69.457 130.131L69.4041 130.811V132.225C69.4041 132.464 69.4041 132.684 69.4396 132.923C69.4752 133.382 69.5471 133.841 69.6728 134.281C69.8158 134.759 70.0134 135.236 70.2813 135.64C70.55 136.063 70.8899 136.412 71.266 136.706C71.6479 137.001 72.0556 137.259 72.4839 137.477C72.6989 137.586 72.9138 137.66 73.1288 137.752C73.3438 137.807 73.5587 137.88 73.7911 137.918C74.2929 138.009 74.7221 138.064 75.1876 138.156C75.6531 138.248 76.083 138.358 76.4592 138.395C76.8528 138.431 77.2653 138.395 77.6589 138.395C77.8738 138.395 78.0888 138.376 78.2682 138.376C78.5006 138.376 78.5543 138.358 78.7337 138.303C79.3422 138.083 79.9152 137.678 80.3989 137.33C80.8825 136.981 81.2587 136.632 81.5986 136.356C81.921 136.081 82.1541 135.861 82.2972 135.714C82.4584 135.567 82.5477 135.475 82.6378 135.512L82.7271 135.493ZM101.977 56.572L101.78 57.3982C102.389 57.5269 103.033 57.6368 103.625 57.4528C104.215 57.2696 104.735 56.6453 104.591 56.0388C104.448 55.4331 103.732 55.1026 103.123 55.2126C102.514 55.3232 102.013 55.7636 101.601 56.2041" fill="#014E72"/>
<path d="M101.584 56.2041C101.584 56.2041 101.494 56.0755 101.494 56.0022C101.494 55.929 101.53 55.8557 101.602 55.7824C101.655 55.7084 101.745 55.6172 101.852 55.5252C101.96 55.4332 102.085 55.3412 102.246 55.2313L102.372 55.158C102.372 55.158 102.425 55.1214 102.497 55.084C102.587 55.0294 102.676 54.9554 102.783 54.9374C102.909 54.9187 103.034 54.9741 103.141 54.992C103.249 55.0107 103.356 54.992 103.482 54.9554H103.661L103.84 55.0107C103.966 55.0474 104.073 55.1214 104.181 55.176C104.306 55.2305 104.413 55.3046 104.521 55.3966C104.628 55.4885 104.717 55.6172 104.789 55.7458C104.843 55.8736 104.897 56.003 104.914 56.1308V56.5346C104.914 56.6087 104.914 56.6819 104.897 56.7373C104.897 56.8106 104.86 56.8659 104.843 56.9392C104.794 57.0609 104.734 57.1776 104.664 57.2876C104.596 57.3935 104.518 57.4919 104.431 57.5815L104.287 57.7101C104.287 57.7101 104.18 57.7834 104.109 57.7834C103.983 57.8021 103.876 57.8021 103.786 57.8387C103.751 57.8574 103.625 57.9307 103.518 57.9673C103.428 58.0039 103.321 58.0406 103.232 58.0219C103.16 58.0219 103.035 58.0039 102.98 57.9852C102.837 57.9852 102.694 58.0227 102.569 58.0227C102.372 58.0227 101.996 57.986 101.834 57.9673C101.691 57.9307 101.512 57.9307 101.351 57.9127C101.28 57.894 101.136 57.9127 101.154 57.8387C101.154 57.7841 101.189 57.7101 101.226 57.6002C101.261 57.4895 101.315 57.3429 101.37 57.1956L101.441 57.0304L101.476 56.9571C101.476 56.9571 101.512 56.9205 101.53 56.8838C101.674 56.6999 101.799 56.7186 101.888 56.6812C101.977 56.6453 102.049 56.6453 102.121 56.6453C102.192 56.6453 102.246 56.7186 102.264 56.7739C102.282 56.8285 102.229 56.9571 102.229 56.9758V57.0491L102.282 57.1036C102.282 57.1036 102.282 57.1411 102.336 57.1036C102.372 57.1036 102.425 57.0678 102.425 57.0678H102.64C102.73 57.0678 102.855 57.0311 102.963 57.0678C102.998 57.0678 103.088 57.1044 103.141 57.1223H103.321C103.374 57.1044 103.446 57.0678 103.5 57.0491C103.553 57.0312 103.643 57.0491 103.714 57.0678H103.822L103.912 57.0124C103.912 57.0124 104.02 56.9205 104.073 56.8651C104.125 56.8118 104.167 56.7499 104.198 56.6819C104.216 56.6453 104.234 56.6087 104.252 56.59V56.2602C104.252 56.1862 104.252 56.1121 104.216 56.0576C104.192 55.98 104.149 55.9103 104.091 55.8549C104.029 55.7917 103.956 55.7418 103.876 55.7084C103.801 55.6701 103.724 55.6395 103.643 55.6172C103.6 55.6136 103.557 55.6011 103.518 55.5805C103.482 55.5805 103.428 55.5805 103.393 55.5985C103.303 55.6351 103.232 55.6904 103.16 55.6717C103.088 55.6717 102.98 55.6172 102.909 55.6351C102.837 55.6538 102.783 55.7271 102.73 55.7824L102.64 55.8736L102.551 55.9477C102.444 56.0389 102.354 56.1308 102.246 56.1862C102.165 56.2545 102.074 56.3102 101.977 56.3514C101.888 56.3881 101.799 56.3881 101.728 56.3881C101.653 56.3851 101.582 56.3521 101.53 56.2961L101.584 56.2041ZM91.5374 56.3148C91.5374 56.3148 91.6093 56.4613 91.5911 56.5346C91.5911 56.6087 91.5381 56.6632 91.4662 56.7186C91.4125 56.7731 91.3224 56.8472 91.2331 56.9025C91.1256 56.9571 91.0181 57.0124 90.8925 57.0857L90.7858 57.1223C90.7858 57.1223 90.7139 57.159 90.6957 57.1777C90.6245 57.2143 90.5708 57.2876 90.4807 57.3063C90.3914 57.3063 90.2839 57.2697 90.1946 57.2697C90.109 57.2723 90.0269 57.3047 89.9615 57.3616C89.9259 57.3796 89.8722 57.4162 89.8366 57.4162H89.6928C89.6035 57.4528 89.496 57.4528 89.4067 57.4708L89.1198 57.5448L88.8337 57.5815H88.565L88.4212 57.6181C88.3856 57.6181 88.3319 57.6181 88.2781 57.6368H88.1351C88.1351 57.6368 88.0458 57.6734 87.9913 57.6734H87.7051L87.419 57.6002L87.2752 57.5635C87.2752 57.5635 87.1859 57.5082 87.1503 57.4716C87.0784 57.3983 87.0247 57.3063 86.9535 57.2689C86.8816 57.233 86.7923 57.2143 86.7204 57.1777C86.6352 57.1443 86.5607 57.0871 86.5055 57.0124C86.4573 56.9431 86.4155 56.8692 86.3806 56.7918C86.3087 56.6632 86.1838 56.59 86.1119 56.4613C86.0174 56.3031 85.9508 56.1289 85.9151 55.9469C85.9151 55.8557 85.8787 55.7637 85.8613 55.6538C85.8613 55.5618 85.8613 55.4511 85.8969 55.3599C85.9325 55.268 85.9681 55.1947 86.0044 55.1214L86.0755 55.0294L86.1119 54.9928L86.1648 54.9562C86.2602 54.9057 86.367 54.8826 86.474 54.889C86.581 54.8954 86.6844 54.9313 86.7734 54.9928C86.8279 55.0474 86.8642 55.1027 86.8642 55.158C86.8642 55.2126 86.8279 55.2313 86.8097 55.2867V55.5252C86.8097 55.5618 86.8097 55.6172 86.8461 55.6538C86.8635 55.6904 86.899 55.7458 86.9172 55.8003C86.9172 55.837 86.9535 55.929 87.0073 56.0576C87.0429 56.1121 87.1148 56.1495 87.1322 56.2228C87.1322 56.2595 87.1503 56.3148 87.1503 56.3514C87.1503 56.3881 87.2033 56.4247 87.2397 56.4434C87.2934 56.4613 87.3471 56.48 87.3835 56.5167C87.4365 56.5533 87.4546 56.6453 87.4902 56.7006C87.4902 56.7373 87.5265 56.7552 87.5621 56.7739L87.6514 56.8106L87.8482 56.8651L88.0639 56.9205H88.5294L88.7618 56.9571H89.0305C89.0305 56.9571 89.2099 56.9205 89.281 56.9025C89.3711 56.8838 89.4604 56.8659 89.5323 56.8472L89.6572 56.8106C89.6572 56.8106 89.7291 56.7739 89.7647 56.7373C89.8366 56.6819 89.8903 56.6087 89.9797 56.6087C90.069 56.6087 90.159 56.6453 90.2302 56.6087C90.3021 56.59 90.3558 56.5167 90.4096 56.4613C90.427 56.4247 90.4626 56.4068 90.4989 56.3881L90.5882 56.3335C90.6957 56.2595 90.785 56.2049 90.8932 56.1495C90.9826 56.1129 91.0719 56.0576 91.143 56.0576C91.2331 56.0576 91.305 56.0576 91.3761 56.0942C91.4481 56.1129 91.5018 56.1675 91.5555 56.2415L91.5374 56.3148Z" fill="#014E72"/>
</g>
</g>
<g clip-path="url(#clip1_115_62)">
<path d="M6.39 49.9298C4.17542 48.5526 1.97714 48.8922 0.821001 50.7788C-0.628252 53.1372 -0.2863 58.0047 5.08732 64.3628C4.84785 64.293 4.59583 64.3078 4.36368 64.4054C4.13154 64.5029 3.92989 64.6786 3.78465 64.91C3.68796 65.06 3.61829 65.231 3.57981 65.4128C3.54133 65.5946 3.5348 65.7836 3.56063 65.9684C3.58646 66.1532 3.64404 66.3302 3.73009 66.4887C3.81612 66.6471 3.92884 66.7839 4.06144 66.891H4.15914C4.97054 67.3921 5.83571 67.7664 6.732 68.0041C7.51359 68.2682 8.26259 68.5135 9.01166 68.7965C10.5008 69.3628 11.9536 70.05 13.3594 70.8529C13.5889 70.9782 13.8516 70.995 14.0917 70.8999C14.3317 70.8049 14.5305 70.6053 14.6459 70.3436C14.7346 70.0894 14.7346 69.8053 14.6459 69.5511C15.5379 69.5587 16.4146 69.2832 17.181 68.7543C17.9475 68.2255 18.5744 67.4636 18.9936 66.5513C19.3044 65.8342 19.3833 65.0119 19.216 64.2332C19.0487 63.4546 18.6464 62.771 18.0817 62.3064C17.2976 61.7505 16.3602 61.5615 15.46 61.7781C18.2446 55.7218 16.5022 51.6467 15.7369 50.3072C15.0453 48.9716 13.9797 47.9509 12.7174 47.4153C11.455 46.8798 10.0724 46.8616 8.79994 47.364C7.7743 47.8878 6.92705 48.7899 6.39 49.9298Z" fill="white"/>
<path d="M6.45696 53.8729C6.54261 57.639 7.27905 61.347 8.62269 64.7778C6.54894 63.0069 4.8734 60.6838 3.73761 58.0046C2.30464 54.2313 3.73761 52.3447 5.26828 52.439C5.43273 52.42 5.59872 52.4445 5.75379 52.5107C5.90887 52.5769 6.04899 52.6831 6.16347 52.8212C6.27795 52.9592 6.36387 53.1257 6.41472 53.3079C6.46557 53.4901 6.47998 53.6832 6.45696 53.8729ZM8.08534 54.7219C8.18305 45.6847 21.6008 51.5145 12.9705 65.1174C18.2952 60.2121 20.0213 67.7965 14.7128 67.6644C11.7492 67.6644 10.5279 66.7022 9.82769 64.4382C8.90176 61.2964 8.32184 58.0319 8.10162 54.7219H8.08534Z" fill="#4AAE42"/>
<path d="M15.5091 70.1927C15.4941 70.2346 15.4695 70.2708 15.4378 70.2975C15.4063 70.3241 15.3689 70.3401 15.3299 70.3437C15.2397 70.3757 15.1433 70.3757 15.0531 70.3437L14.6623 70.1739L14.1576 69.9098H14.0273H13.8806C13.7668 69.8857 13.657 69.8412 13.5551 69.7777C13.4499 69.6872 13.3517 69.5862 13.2618 69.4758C13.1686 69.386 13.0561 69.3273 12.9363 69.306C12.8713 69.3146 12.8058 69.3146 12.7408 69.306L12.5617 69.1928C12.4477 69.1928 12.3338 69.0419 12.2035 68.9853L11.8127 68.8155L11.4381 68.6268L11.0799 68.457H10.917H10.7379H10.5425H10.3634L10.0214 68.3249L9.69569 68.174H9.53291C9.45648 68.1793 9.38069 68.1546 9.31777 68.1041C9.25484 68.0534 9.20841 67.9798 9.18584 67.895C9.16334 67.8102 9.16598 67.7191 9.19355 67.6362C9.22105 67.5534 9.27177 67.4836 9.33755 67.4382C9.26312 67.3452 9.17491 67.2685 9.07705 67.2118C8.98412 67.1631 8.88512 67.1313 8.78384 67.1175C8.68162 67.0883 8.58312 67.0438 8.49077 66.9854L8.24655 66.8156C8.10619 66.7393 7.95862 66.6823 7.80684 66.6458L7.23698 66.4006L6.96007 66.2873L6.68327 66.1364L6.47158 65.9666V65.8723C6.3961 65.7396 6.34105 65.5927 6.30878 65.4383C6.28509 65.3524 6.28509 65.2601 6.30878 65.1742C6.32728 65.1444 6.35177 65.1202 6.38014 65.1037C6.40852 65.0873 6.43987 65.0791 6.47158 65.0799C6.57479 65.1053 6.67377 65.1498 6.76467 65.212H6.96007L7.22069 65.3062L7.48119 65.4006C7.56212 65.4401 7.63869 65.4908 7.70912 65.5515L8.24655 65.8157C8.40427 65.8665 8.55705 65.936 8.70241 66.0232L8.93041 66.2307C9.00527 66.2896 9.08777 66.3342 9.17477 66.3628L9.48412 66.4949C9.58205 66.5671 9.66991 66.6561 9.74462 66.759L9.87491 66.8911H10.0214L10.3471 67.0798L10.6728 67.2684H10.8356L10.9659 67.4382L11.145 67.5325L11.3079 67.6269L11.6498 67.8344L12.0081 68.0608L12.3989 68.2495L12.7733 68.4382L12.9525 68.5325H13.1317C13.2641 68.539 13.393 68.5844 13.5061 68.6645C13.6201 68.6645 13.7016 68.8532 13.7993 68.9098C13.9047 68.9587 14.0137 68.9966 14.125 69.023H14.2878H14.4343C14.614 69.0866 14.7884 69.1687 14.9554 69.2683C15.0867 69.3435 15.212 69.4318 15.3299 69.5324C15.4053 69.6046 15.4663 69.6947 15.5091 69.7966C15.5396 69.8161 15.5651 69.8448 15.5828 69.8796C15.6005 69.9145 15.6099 69.9542 15.6099 69.9946C15.6099 70.0351 15.6005 70.0748 15.5828 70.1096C15.5651 70.1445 15.5396 70.1732 15.5091 70.1927Z" fill="#014E72"/>
<path d="M10.7382 66.2682C10.6515 66.2682 10.5375 66.1738 10.3964 65.9851C10.1961 65.6549 10.0269 65.3006 9.8916 64.9286C9.71245 64.4947 9.50067 63.9098 9.28902 63.2306C9.07731 62.5514 8.88188 61.7779 8.68652 60.9101L8.54002 60.2686L8.39338 59.6083C8.26752 59.1181 8.16424 58.6206 8.08402 58.1178C8.02245 57.5921 7.98438 57.0632 7.97002 56.5329C7.97002 56.0424 7.8561 55.5142 7.82352 54.9482C7.7906 54.6538 7.7906 54.3558 7.82352 54.0614V53.1747C7.89081 52.5789 8.00531 51.9916 8.16552 51.4201C8.31788 50.822 8.56038 50.2599 8.88188 49.7598C9.20917 49.2332 9.63152 48.7954 10.1195 48.4769C10.5631 48.1914 11.0493 48.0058 11.5525 47.9298C11.8019 47.9111 12.0521 47.9111 12.3015 47.9298C12.5452 47.901 12.7907 47.901 13.0343 47.9298C13.285 47.9738 13.5307 48.0497 13.767 48.1562C14.0074 48.241 14.2373 48.3615 14.451 48.5146C14.8885 48.7766 15.2892 49.1137 15.6397 49.5146C15.9882 49.8951 16.2995 50.319 16.5679 50.7786C16.6819 51.005 16.8122 51.2503 16.9099 51.4767C17.018 51.7373 17.1052 52.0089 17.1704 52.288C17.2706 52.7603 17.3467 53.2391 17.3984 53.7218C17.4747 54.1759 17.5184 54.6366 17.5287 55.0991C17.5859 55.5684 17.5859 56.0448 17.5287 56.5141C17.4702 56.9223 17.3885 57.3257 17.2844 57.7215C17.1215 58.4196 16.9424 59.0988 16.7632 59.7215C16.4653 60.5444 16.1227 61.3447 15.7374 62.1175C15.5582 62.5137 15.3303 62.8722 15.1186 63.2683C14.9212 63.6457 14.6921 63.9996 14.4347 64.3249L13.7996 65.155L13.5065 65.5135L13.3437 65.6833L13.1808 65.8342C12.8775 66.1135 12.5564 66.3657 12.2202 66.5889C11.9922 66.7398 11.8456 66.8153 11.7967 66.7587C11.7479 66.7021 11.7967 66.5323 11.9922 66.2682C12.2316 65.9312 12.487 65.6099 12.7575 65.3059L12.8715 65.155L12.9855 64.9853L13.2297 64.589L13.7833 63.7212C14.001 63.4169 14.192 63.0883 14.3533 62.7401C14.5325 62.3817 14.7767 62.0043 14.9721 61.5704C15.3317 60.8649 15.6525 60.1339 15.9328 59.3818C16.1395 58.764 16.3189 58.1342 16.4702 57.4952C16.5742 57.1362 16.6611 56.7709 16.7307 56.4009C16.7724 56.0188 16.7724 55.6321 16.7307 55.25C16.7291 54.8137 16.6964 54.3783 16.633 53.9482C16.633 53.4577 16.519 53.0049 16.4539 52.5521C16.404 52.3471 16.3442 52.1455 16.2748 51.9484C16.1932 51.7311 16.0952 51.5228 15.9817 51.3258C15.7742 50.9026 15.5166 50.5152 15.2163 50.1749C14.9215 49.8048 14.5814 49.4869 14.2067 49.2316C14.0113 49.1184 13.8322 48.9863 13.6205 48.892C13.4209 48.7941 13.2137 48.7182 13.0017 48.6656C12.7891 48.599 12.5705 48.561 12.3503 48.5524C12.1285 48.5242 11.9047 48.5242 11.6827 48.5524C11.2478 48.584 10.8221 48.7121 10.4289 48.9297C9.99931 49.1951 9.61788 49.5538 9.30531 49.9862C9.0131 50.4368 8.78752 50.9405 8.63774 51.4767C8.48295 52.0101 8.37388 52.5599 8.31202 53.1181V53.9671C8.28802 54.2305 8.28802 54.4961 8.31202 54.7595L8.50738 56.4009C8.52174 56.9131 8.56531 57.4236 8.63774 57.9291C8.72345 58.395 8.83224 58.8548 8.96338 59.3064L9.12617 60.0044L9.28902 60.6648C9.50067 61.5138 9.71238 62.2685 9.90781 62.9477L10.4289 64.6833C10.5755 65.1739 10.6732 65.5324 10.7382 65.7965C10.8034 66.0606 10.8034 66.2304 10.7382 66.2682Z" fill="#014E72"/>
<path d="M6.42318 50.0997C6.11571 50.0433 5.80247 50.0433 5.495 50.0997C5.19061 50.1384 4.89359 50.234 4.61561 50.3827C4.33323 50.5275 4.07008 50.7181 3.83403 50.9487C3.62672 51.204 3.44136 51.482 3.28043 51.7789C3.13001 52.0739 3.01493 52.3912 2.93844 52.7222C2.84666 53.0284 2.78122 53.3444 2.74304 53.6655C2.72628 53.9923 2.72628 54.3199 2.74304 54.6466C2.75697 54.9892 2.79511 55.33 2.85704 55.6654C2.99526 56.239 3.16943 56.8003 3.37813 57.3445C3.57353 57.8351 3.70375 58.3822 3.93172 58.8727L4.27372 59.6085C4.37805 59.8351 4.49212 60.0555 4.61561 60.2689C5.05719 61.0341 5.54132 61.7651 6.06488 62.4574C6.46575 62.9977 6.90119 63.5022 7.36755 63.9667C7.75841 64.3441 8.06776 64.6082 8.27948 64.778C8.49112 64.9478 8.63769 64.9855 8.68655 64.9289C8.73541 64.8723 8.68655 64.6836 8.52376 64.4195C8.36091 64.1554 8.08412 63.8536 7.75848 63.4573C7.43276 63.0611 7.02564 62.5518 6.58598 61.9668C6.08117 61.3106 5.61342 60.6174 5.1856 59.8916C5.06222 59.6911 4.94804 59.4833 4.84361 59.2689L4.53421 58.6274C4.31682 58.1426 4.12118 57.6452 3.94802 57.137C3.73566 56.6224 3.55073 56.0931 3.39433 55.5522C3.30321 54.9975 3.30321 54.4278 3.39433 53.8731C3.41238 53.5718 3.46163 53.274 3.54093 52.9863C3.59603 52.6976 3.68358 52.4185 3.80143 52.1562C4.04169 51.6286 4.4172 51.2002 4.87621 50.9299C5.35456 50.6754 5.88393 50.5775 6.40688 50.6469C7.00938 50.6469 7.46534 50.8544 7.61184 50.6469C7.75841 50.4393 7.36762 50.3261 6.42318 50.0997Z" fill="#014E72"/>
<path d="M13.1642 67.5323C13.1642 67.438 13.2619 67.3814 13.3759 67.3625C13.5329 67.345 13.6911 67.345 13.8482 67.3625C14.0795 67.4161 14.3132 67.4539 14.5484 67.4757C14.8575 67.4977 15.1675 67.4977 15.4765 67.4757C15.5632 67.4852 15.6504 67.4852 15.737 67.4757H15.9813L16.5512 67.3814C16.7629 67.3814 16.9746 67.3814 17.17 67.3814C17.3662 67.3515 17.5548 67.2744 17.7237 67.155L18.0168 66.9663L18.3099 66.7965C18.4962 66.6746 18.6662 66.5221 18.8147 66.3437C18.9728 66.1733 19.1001 65.968 19.1892 65.74C19.3025 65.5329 19.38 65.3022 19.4172 65.0608C19.4579 64.8496 19.4579 64.6305 19.4172 64.4193C19.4021 64.2088 19.3277 64.01 19.2055 63.8533C19.1587 63.7706 19.0978 63.6999 19.0264 63.6458L18.8147 63.4571C18.6777 63.3499 18.522 63.279 18.3587 63.2496C18.1858 63.2224 18.0105 63.2224 17.8376 63.2496H17.5771C17.4796 63.259 17.3815 63.259 17.284 63.2496C17.1167 63.2192 16.9465 63.2192 16.7792 63.2496C16.62 63.3121 16.4671 63.3942 16.3232 63.4949L15.8673 63.759C15.7211 63.8132 15.5794 63.8827 15.444 63.9665C15.2132 64.1097 14.9997 64.2873 14.8088 64.4948C14.418 64.8155 14.1738 65.0985 14.0272 65.2306C13.891 65.3474 13.7655 65.4801 13.6527 65.6267C13.5362 65.7631 13.411 65.8893 13.2782 66.0041L12.92 66.2871L12.7734 66.4192H12.692H12.5943C12.4188 66.5173 12.2325 66.5872 12.0406 66.6267C11.9103 66.6267 11.8127 66.6267 11.7801 66.6267C11.7475 66.6267 11.7801 66.4758 11.7801 66.3437C11.8914 66.1785 12.0168 66.0268 12.1546 65.8909V65.7966L12.2849 65.6267C12.3793 65.4918 12.4827 65.3656 12.5943 65.2494L12.9363 64.8344C13.0597 64.6635 13.196 64.5057 13.3434 64.3627C13.49 64.2496 13.7667 63.9665 14.1737 63.6458C14.3956 63.4208 14.642 63.2306 14.9065 63.0798L15.3788 62.8723C15.542 62.8063 15.7 62.7243 15.851 62.627L16.4047 62.3628C16.6212 62.3354 16.8395 62.3354 17.056 62.3628H17.6748C17.9062 62.3633 18.1364 62.4015 18.3587 62.476C18.5948 62.532 18.8173 62.648 19.0101 62.8157C19.1183 62.8868 19.217 62.9758 19.3032 63.0798C19.3969 63.1733 19.4791 63.2812 19.5475 63.4005C19.628 63.5215 19.6938 63.6549 19.7429 63.7967C19.7926 63.9354 19.8255 64.0815 19.8405 64.2307C19.8893 64.5172 19.8893 64.812 19.8405 65.0985C19.7975 65.4058 19.7035 65.7005 19.5637 65.9664C19.4456 66.2319 19.2917 66.4739 19.1077 66.6833C18.936 66.9026 18.7387 67.0931 18.5216 67.2493L18.1959 67.4569L17.9028 67.6455C17.6991 67.8155 17.4656 67.9315 17.2189 67.9851C17.0021 68.003 16.7844 68.003 16.5675 67.9851L15.9813 68.1172H15.672H15.395C15.059 68.1485 14.7215 68.1485 14.3855 68.1172C14.1305 68.0769 13.8796 68.0074 13.6365 67.9096C13.479 67.8402 13.3309 67.7449 13.1967 67.6267C13.1804 67.5982 13.1692 67.566 13.1642 67.5323Z" fill="#014E72"/>
</g>
<defs>
<clipPath id="clip0_115_62">
<rect width="137" height="152" fill="white" transform="translate(29)"/>
</clipPath>
<clipPath id="clip1_115_62">
<rect width="20" height="24" fill="white" transform="translate(0 47)"/>
</clipPath>
</defs>
</svg>
