<svg width="530" height="418" viewBox="0 0 530 418" fill="none" xmlns="http://www.w3.org/2000/svg">
<path d="M468.996 334.16C468.996 334.392 467.996 334.392 466.347 334.16C464.695 333.928 462.345 333.559 459.445 332.956C456.545 332.352 453.042 331.658 448.893 331.009L434.94 328.788C433.688 328.556 432.339 328.462 431.039 328.278L427.037 327.862C424.287 327.584 421.387 327.306 418.187 326.89L408.984 325.777C406.084 325.454 402.936 325.269 399.635 325.128H394.633L389.631 324.898C386.232 324.898 382.781 324.527 379.281 324.572H368.628C365.077 324.572 361.476 324.572 357.927 324.85C354.375 325.128 351.426 324.85 348.174 325.221L343.175 325.499L338.473 325.825L333.472 326.193L328.471 326.658L319.12 327.491C316.019 327.768 312.969 328.185 309.968 328.511L305.517 329.02L300.816 329.482C297.816 329.76 295.066 329.944 292.715 330.27L284.864 331.429C282.263 331.891 279.513 332.307 276.963 332.633L269.961 333.559C265.81 334.115 261.86 334.947 258.159 335.596L243.157 338.234L235.455 339.67L228.604 340.874L222.153 341.846L219.302 342.311H217.852H216.452C212.901 342.727 210.451 342.866 208.75 342.96C207.05 343.05 206 342.96 206 342.96C206 342.96 206.9 342.45 208.801 342.033C210.701 341.617 213.501 341.107 216.502 340.551L217.652 340.319L218.902 340.087L221.753 339.486L228.104 338.234L235.105 336.891C237.556 336.384 240.106 335.826 243.257 335.319L258.259 332.817C261.66 332.262 265.76 331.429 270.561 330.78L277.562 329.947C279.913 329.666 282.163 329.343 284.714 328.927L292.865 327.816C295.966 327.397 298.966 327.213 301.667 326.981L305.667 326.658L310.118 326.193L319.22 325.269L328.571 324.527L333.272 324.156L338.273 323.833L343.273 323.507L348.275 323.278C351.527 323.278 354.776 323.278 358.276 323H369.029H378.629C382.181 323 385.632 323 389.083 323.278H394.082H399.084C402.385 323.278 405.686 323.555 409.085 323.878L418.288 324.85C420.989 325.176 423.889 325.454 426.738 325.686L431.039 326.102L435.09 326.564L449.294 328.788C453.494 329.437 457.043 330.363 460.145 331.058C463.245 331.752 465.144 332.355 466.894 332.817C468.647 333.279 469.045 333.928 468.996 334.16Z" fill="#00625E"/>
<path d="M359.52 135.587C374.534 136.338 383.296 152.858 373.769 178.305C364.242 203.752 336.637 218.812 338.677 220.689C349.482 230.534 369.601 263.865 379.937 272.668C394.612 285.182 398.821 300.493 384.189 312.756C380.319 316.011 373.343 316.429 377.257 319.389C388.019 327.734 402.779 355.057 402.566 367.49C402.566 369.033 425.916 358.644 425.916 383.383C425.916 408.122 401.203 408.162 397.163 399.11C397.163 399.11 386.869 416.589 359.604 417.548C344.547 418.049 325.28 413.378 312.817 414.419C300.354 415.464 287.679 417.382 283.681 407.83C279.682 398.277 284.999 393.061 290.018 392.395C295.037 391.728 317.496 393.101 317.496 389.266C316.12 384.717 313.87 380.466 310.86 376.75C302.105 367.456 295.592 356.348 291.805 344.254C291.124 341.835 288.743 343.126 283.723 361.272C281.129 370.576 262.456 367.908 262.116 360.147C261.776 352.386 269.857 319.767 291.124 310.586C299.206 307.167 278.364 299.491 270.07 297.322C258.5 294.319 253.864 299.617 243.443 298.115C237.956 297.28 237.999 288.395 238.467 286.768C242.72 270.915 266.965 275.046 285.51 280.719C291.422 282.513 299.759 277.674 293.294 273.21C280.533 264.366 262.754 265.743 256.204 245.302C253.793 237 254.472 228.128 258.118 220.272C260.457 216.976 269.049 221.356 278.959 214.598C283.511 211.47 298.78 204.67 306.905 205.713C323.111 207.799 317.709 206.881 319.664 207.632C322.472 208.591 332.936 196.118 340.081 186.065C346.248 177.346 347.994 168.252 346.631 154.86C345.27 141.469 348.505 135.045 359.52 135.587Z" fill="white"/>
<path d="M324.215 213.096C324.215 213.096 324.215 212.678 323.788 212.303C323.24 211.818 322.626 211.411 321.961 211.093C320.952 210.589 319.915 210.143 318.856 209.758C317.461 209.287 316.042 208.897 314.603 208.59L313.412 208.34L312.177 208.09C311.267 207.895 310.343 207.769 309.413 207.714C308.45 207.649 307.483 207.649 306.52 207.714C305.584 207.714 304.649 207.714 303.585 207.714H302.012H300.438C299.375 207.714 298.311 208.131 297.248 208.34C296.164 208.554 295.097 208.847 294.058 209.216C293.027 209.638 292.019 210.112 291.038 210.634L288.401 212.011L287.082 212.679L285.763 213.304L284.445 213.888L283.084 214.514L280.489 215.724L277.937 216.85L276.704 217.351L275.428 217.977C274.722 218.396 273.982 218.759 273.216 219.061C272.462 219.308 271.695 219.517 270.919 219.687L268.665 220.271C268.027 220.313 267.388 220.313 266.751 220.271C265.475 220.271 264.241 219.979 262.965 219.979C262.006 220.025 261.07 220.286 260.23 220.742C259.389 221.197 258.666 221.835 258.116 222.607C257.566 223.359 257.136 224.189 256.84 225.068C256.585 225.852 256.442 226.666 256.415 227.488C256.372 228.183 256.372 228.879 256.415 229.574V230.45V231.326V231.743C256.577 232.553 256.849 233.339 257.223 234.079C257.435 234.579 257.606 234.83 257.776 234.83C257.946 234.83 258.073 234.496 258.116 233.912C258.159 233.328 258.116 232.494 258.116 231.576V230.033C258.116 229.407 258.116 228.781 258.116 228.155C258.186 227.498 258.344 226.854 258.584 226.236C258.812 225.558 259.158 224.923 259.605 224.359C259.943 223.883 260.378 223.481 260.884 223.179C261.389 222.878 261.953 222.683 262.54 222.607C263.476 222.607 264.709 222.816 266.24 222.816C267.032 222.893 267.83 222.893 268.622 222.816L270.876 222.19L273.344 221.439C274.204 221.098 275.03 220.679 275.811 220.188L276.916 219.603L278.362 218.811L280.915 217.601L283.467 216.308L284.743 215.64L286.061 215.015L287.38 214.347L288.698 213.596L291.293 212.178C292.207 211.626 293.159 211.138 294.143 210.718C295.123 210.344 296.133 210.051 297.163 209.842C298.171 209.587 299.193 209.392 300.225 209.258H301.714C302.209 209.215 302.707 209.215 303.203 209.258C304.181 209.258 305.159 209.258 306.222 209.258C307.286 209.258 308.179 209.258 308.987 209.258C309.837 209.33 310.678 209.484 311.497 209.717L312.773 209.967L313.964 210.259C315.496 210.593 316.856 211.01 318.216 211.385L321.281 212.512L323.278 213.221C323.788 213.304 324.086 213.304 324.215 213.096Z" fill="#00625E"/>
<path d="M293.335 269.788C293.335 269.788 293.335 269.412 293.08 269.12C292.706 268.804 292.291 268.538 291.846 268.328L289.847 267.327L287.21 266.117L286.444 265.825L285.721 265.449C285.187 265.138 284.632 264.859 284.062 264.615L282.191 264.114C281.578 263.905 280.993 263.625 280.447 263.28L279.554 262.779L278.575 262.362L276.661 261.445L274.748 260.443L272.833 259.401L271.089 258.441L270.239 257.94L269.43 257.398L268.665 256.856L267.899 256.23C267.431 255.854 266.921 255.479 266.496 255.062C266.038 254.662 265.612 254.23 265.22 253.769L264.624 253.143L263.986 252.476C263.542 252.166 263.154 251.785 262.838 251.349C262.541 250.928 262.285 250.481 262.072 250.014C261.859 249.555 261.562 249.097 261.306 248.638C261.051 248.179 260.796 247.845 260.626 247.469C260.308 246.748 260.079 245.992 259.945 245.217C259.633 244.267 259.419 243.289 259.307 242.297C259.266 241.797 259.266 241.295 259.307 240.795C259.307 240.295 259.307 239.794 259.095 239.335V238.084V237.499V237.249V236.957C258.921 236.421 258.693 235.904 258.414 235.414C258.414 235.038 258.116 234.83 257.946 234.83C257.776 234.83 257.606 234.83 257.521 235.414C257.473 235.955 257.473 236.499 257.521 237.04V241.212C257.462 241.795 257.462 242.382 257.521 242.964C257.699 244.007 257.94 245.037 258.244 246.051C258.46 246.912 258.759 247.75 259.137 248.554C259.392 249.013 259.69 249.389 259.945 249.847C260.249 250.257 260.519 250.69 260.754 251.141C261.003 251.667 261.302 252.17 261.647 252.643C262.038 253.147 262.513 253.584 263.05 253.936C263.263 253.936 263.518 254.311 263.688 254.52L264.369 255.187C264.806 255.649 265.275 256.082 265.773 256.48C266.283 256.898 266.793 257.315 267.346 257.69L268.155 258.233L269.005 258.817L269.856 259.359L270.749 259.818L272.578 260.735L274.577 261.695L276.491 262.696C277.129 263.072 277.81 263.322 278.405 263.656L279.384 264.114C279.685 264.25 279.97 264.418 280.234 264.615C280.815 264.997 281.427 265.332 282.063 265.616C282.744 265.825 283.382 265.992 283.892 266.2C284.42 266.446 284.932 266.725 285.423 267.035L286.189 267.494L286.955 267.827L289.592 269.079C290.282 269.4 290.993 269.679 291.719 269.913C292.188 270.072 292.673 270.184 293.165 270.247C292.995 270.038 293.207 269.996 293.335 269.788Z" fill="#00625E"/>
<path d="M324.807 249.973C324.807 249.973 325.317 250.641 326.339 251.392C327.781 252.652 329.091 254.049 330.253 255.563C331.977 257.912 333.525 260.38 334.888 262.947C336.549 265.951 338.248 269.413 340.034 273.293L341.353 276.213L342.672 279.258C343.566 281.344 344.503 283.43 345.65 285.933C346.8 288.436 348.031 290.522 349.222 292.691C350.413 294.86 351.563 296.863 352.879 299.449C353.562 300.617 354.242 301.868 355.092 303.078C355.944 304.288 356.709 305.331 357.602 306.457C359.401 308.73 361.538 310.728 363.938 312.381C366.424 314.118 369.398 315.049 372.447 315.052C375.515 314.834 378.501 313.979 381.209 312.547C383.728 311.351 385.985 309.679 387.843 307.626C388.774 306.584 389.548 305.418 390.14 304.163C390.742 302.936 391.159 301.628 391.375 300.283C391.654 298.911 391.742 297.507 391.629 296.112C391.535 294.701 391.29 293.303 390.908 291.94C390.178 289.378 389.106 286.923 387.718 284.64C386.398 282.43 384.891 280.337 383.208 278.382C382.315 277.464 381.463 276.505 380.613 275.671L377.806 272.959C376.019 271.248 374.402 269.705 373.042 268.245C371.682 266.785 370.234 264.991 368.79 263.281L364.534 258.191C363.258 256.564 362.111 255.063 361.174 253.603C359.557 250.682 357.73 247.721 355.985 245.259C352.497 240.295 349.818 236.916 348.457 235.039L344.415 229.949C343.055 228.28 341.566 226.57 340.162 225.194C338.758 223.817 337.611 222.524 336.42 221.314L334.634 219.645L333.741 218.853L332.848 218.102C331.168 216.714 329.291 215.575 327.276 214.723C325.872 214.222 325.064 214.264 325.064 214.389C325.064 214.514 325.744 214.806 327.019 215.641C328.793 216.768 330.444 218.068 331.955 219.52L332.676 220.188L333.4 220.938L335.017 222.649C336.123 223.859 337.354 225.152 338.545 226.821C339.736 228.489 341.015 229.657 342.29 231.284L346.543 236.666C347.862 238.334 350.498 241.713 353.86 246.469C355.518 248.847 357.26 251.517 359.304 255.063C360.366 256.731 361.601 258.275 362.791 259.818L366.577 264.449C367.937 266.062 369.426 267.772 371.043 269.58C372.788 271.457 374.615 273.167 376.317 274.711L378.699 276.964C379.592 277.798 380.4 278.674 381.253 279.55C382.854 281.375 384.28 283.344 385.505 285.432C386.865 287.538 387.937 289.81 388.695 292.19C389.081 293.37 389.338 294.587 389.46 295.82C389.611 297.039 389.611 298.271 389.46 299.491C389.307 300.752 388.978 301.987 388.482 303.161C388.022 304.338 387.376 305.436 386.568 306.415C384.922 308.398 382.882 310.03 380.57 311.213C378.05 312.615 375.277 313.521 372.403 313.884C369.586 314.056 366.787 313.309 364.449 311.754C362.121 310.205 360.04 308.321 358.282 306.165C357.433 305.081 356.58 304.038 355.816 302.87C355.051 301.701 354.412 300.658 353.776 299.532C352.456 297.196 351.265 294.777 349.946 292.273C348.627 289.77 347.436 287.643 346.502 285.599C345.565 283.555 344.628 281.427 343.735 279.216L342.375 275.963L341.015 272.917C339.228 268.954 337.567 265.408 335.825 262.321C334.374 259.588 332.647 257.003 330.676 254.604C329.407 253.083 327.884 251.785 326.17 250.766C325.574 249.931 324.851 249.764 324.807 249.973Z" fill="#00625E"/>
<path d="M352.537 347.797C352.537 347.797 351.39 347.465 349.221 347.797C346.178 348.157 343.192 348.885 340.331 349.967C335.915 351.624 331.829 354.024 328.25 357.058C323.49 361.06 320.165 366.457 318.767 372.453C318.366 374.122 318.14 375.828 318.084 377.543C317.918 379.261 317.918 380.995 318.084 382.716C318.36 385.737 318.927 388.728 319.786 391.641C319.786 391.893 319.786 392.016 319.106 392.308C315.326 393.27 311.441 393.774 307.537 393.811C303.794 393.811 299.796 393.811 295.5 393.811C294.39 393.836 293.282 393.919 292.182 394.06C291.021 394.281 289.902 394.675 288.864 395.231C286.825 396.319 285.143 397.954 284.015 399.943C283.432 400.963 283.074 402.091 282.964 403.256C282.854 404.421 282.995 405.595 283.377 406.702C284.204 408.89 285.687 410.78 287.631 412.123C291.552 414.717 296.291 415.842 300.987 415.295C305.623 415.003 310.132 414.462 314.724 414.545C319.319 414.628 323.02 414.794 327.188 415.129L333.399 415.67L339.482 416.214L345.733 416.672C347.817 416.672 349.986 416.672 352.029 416.672C356.125 416.687 360.221 416.408 364.279 415.836C368.259 415.24 372.167 414.235 375.934 412.833C377.77 412.123 379.56 411.303 381.293 410.371C383.126 409.382 384.85 408.205 386.438 406.868C389.168 404.565 391.581 401.931 393.627 399.027C395.655 396.239 397.338 393.23 398.645 390.058C399.98 386.865 400.866 383.512 401.283 380.088C401.556 377.076 401.556 374.045 401.283 371.033C401.111 365.9 400.268 360.814 398.773 355.89C396.742 349.595 393.793 343.624 390.011 338.162C389.099 336.717 388.106 335.325 387.034 333.991C386.012 332.654 385.034 331.277 383.888 330.026C381.772 327.549 379.532 325.182 377.166 322.936C374.997 320.892 372.913 319.014 370.998 317.302L368.19 314.883L366.786 313.675L365.426 312.507C362.825 310.519 360.365 308.358 358.068 306.04C356.58 304.496 356.197 303.203 355.94 303.287C355.686 303.37 355.94 303.662 356.153 304.288C356.46 305.233 356.952 306.111 357.601 306.874C359.735 309.489 362.114 311.905 364.702 314.09L365.809 315.092L366.999 316.177L369.679 318.722C371.594 320.474 373.549 322.392 375.633 324.435C377.72 326.482 379.889 328.609 381.76 331.068C382.822 332.239 383.844 333.573 384.906 334.95C385.971 336.327 387.118 337.744 388.096 339.373C391.706 344.521 394.571 350.136 396.604 356.059C398.14 360.974 399.024 366.063 399.24 371.202C399.519 374.101 399.519 377.02 399.24 379.919C398.898 382.86 398.184 385.746 397.115 388.512C394.586 395.081 390.453 400.939 385.078 405.577C383.74 406.634 382.318 407.581 380.823 408.41C379.221 409.363 377.542 410.187 375.805 410.872C372.22 412.314 368.482 413.35 364.662 413.961C360.722 414.604 356.743 414.954 352.75 415.003C350.751 415.003 348.751 415.003 346.755 415.003L340.672 414.628L334.377 414.084L328.125 413.583C323.869 413.291 319.616 413.085 315.364 413.042C310.745 413.073 306.13 413.337 301.54 413.835C297.135 414.438 292.651 413.602 288.779 411.456C286.938 410.347 285.461 408.739 284.526 406.828C284.116 405.906 283.904 404.913 283.904 403.908C283.904 402.903 284.116 401.907 284.526 400.988C285.392 399.15 286.8 397.61 288.567 396.565C290.231 395.529 292.168 394.991 294.139 395.022C298.392 395.022 302.646 395.022 307.112 395.022C311.154 395.025 315.182 394.549 319.106 393.602C319.601 393.448 320.061 393.209 320.469 392.892C320.707 392.665 320.886 392.382 320.983 392.069C321.08 391.752 321.092 391.42 321.02 391.1C320.262 388.497 319.748 385.829 319.488 383.131L319.234 380.503V377.835C319.272 376.175 319.485 374.525 319.873 372.911C321.136 367.17 324.289 361.997 328.845 358.186C332.358 355.18 336.354 352.77 340.672 351.052C343.43 349.97 346.276 349.119 349.178 348.507C351.518 348.132 352.581 348.132 352.537 347.797Z" fill="#00625E"/>
<path d="M261.351 225.403C261.193 225.455 261.057 225.558 260.968 225.695C260.937 225.738 260.92 225.789 260.92 225.841C260.92 225.894 260.937 225.945 260.968 225.987C260.968 225.987 260.968 226.238 260.968 226.321L261.266 226.697C261.266 226.697 261.266 226.697 261.266 226.947C261.266 227.197 261.563 226.947 261.691 226.947C261.819 226.947 261.691 226.947 261.946 226.947H262.244H262.542H262.839H263.137H263.435H263.775H264.073C264.073 226.947 264.073 226.947 264.371 226.947H264.668C264.708 226.965 264.752 226.975 264.796 226.975C264.84 226.975 264.884 226.965 264.924 226.947H265.179C265.179 226.947 265.476 226.947 265.604 226.947H266.497H266.753V226.738C266.817 226.492 266.817 226.234 266.753 225.987C266.77 225.835 266.77 225.681 266.753 225.529L266.455 225.237H265.902H265.689H265.392C265.392 225.237 265.179 225.237 265.094 225.237C265.094 225.237 265.094 225.237 264.881 225.529H264.158H263.648H263.392H263.137C263.137 225.529 263.137 225.529 262.925 225.529V225.237C262.925 225.237 262.669 225.237 262.627 225.237C262.584 225.237 262.627 225.237 262.627 224.986C262.649 224.89 262.649 224.79 262.627 224.694C262.627 224.694 262.627 224.694 262.371 224.694H261.989C261.7 224.852 261.474 225.103 261.351 225.403Z" fill="#00625E"/>
<path d="M296.355 227.864C296.355 227.864 296.823 227.864 296.993 227.364C297.134 227.07 297.207 226.75 297.207 226.425C297.207 226.101 297.134 225.78 296.993 225.486C296.779 225.017 296.423 224.624 295.973 224.36C295.42 223.943 294.611 224.36 294.186 224.36C292.958 224.679 291.886 225.419 291.166 226.446C290.943 226.73 290.783 227.057 290.698 227.405C290.569 227.756 290.483 228.12 290.443 228.49C290.387 229.329 290.611 230.164 291.081 230.868C291.352 231.214 291.691 231.503 292.079 231.718C292.466 231.933 292.893 232.07 293.335 232.119C294.187 232.276 295.068 232.112 295.803 231.66C296.202 231.407 296.548 231.081 296.823 230.701C297.047 230.285 297.191 229.833 297.249 229.366C297.294 228.883 297.222 228.396 297.037 227.946C296.851 227.496 296.56 227.096 296.185 226.779C295.45 226.14 294.487 225.811 293.505 225.862C292.988 225.909 292.492 226.083 292.061 226.367C291.63 226.651 291.278 227.037 291.039 227.489C290.636 228.132 290.456 228.885 290.525 229.637C290.594 230.388 290.908 231.098 291.422 231.66C291.422 231.66 291.422 231.911 291.677 231.952H292.102H292.91C293.416 231.817 293.892 231.59 294.314 231.285C294.668 230.988 294.97 230.635 295.207 230.242C295.765 229.464 296.035 228.522 295.973 227.572C295.897 226.545 295.495 225.568 294.824 224.777H294.569L292.995 225.528L292.187 226.112L291.762 226.529C291.312 227.086 290.9 227.672 290.528 228.281C290.266 228.679 290.127 229.143 290.127 229.617C290.127 230.09 290.266 230.553 290.528 230.951C290.801 231.295 291.149 231.575 291.547 231.77C291.944 231.965 292.381 232.07 292.825 232.078C293.586 232.115 294.337 231.894 294.952 231.452C295.989 230.646 296.735 229.535 297.078 228.281C297.291 227.489 297.461 226.696 297.674 225.862C296.751 225.646 295.789 225.646 294.867 225.862C293.867 226.16 292.98 226.741 292.315 227.531C291.784 228.123 291.47 228.871 291.422 229.658C291.334 230.141 291.334 230.635 291.422 231.118L292.017 232.954L293.293 231.702L293.591 231.368L294.059 230.91L294.314 230.659V230.409C294.682 229.907 294.982 229.36 295.207 228.782C295.207 228.365 295.462 228.114 295.207 227.989C294.952 227.864 294.824 227.989 294.441 227.989C293.947 228.332 293.478 228.709 293.038 229.116H292.825H292.57L292.017 229.491L291.677 229.741L293.038 230.2C292.997 229.966 292.997 229.726 293.038 229.491C293.1 229.114 293.278 228.765 293.548 228.49C293.846 228.198 293.803 228.49 293.888 228.49C293.888 228.49 293.888 228.49 293.888 228.74C293.711 229.005 293.496 229.244 293.25 229.449C293.056 229.633 292.797 229.738 292.527 229.741C292.389 229.765 292.246 229.755 292.112 229.711C291.979 229.668 291.858 229.592 291.762 229.491C291.762 229.282 291.762 229.491 291.762 228.99C291.996 228.517 292.281 228.07 292.612 227.656L292.995 227.155H293.378C293.378 227.155 293.633 227.531 293.633 227.739C293.656 228.252 293.523 228.761 293.25 229.199C293.119 229.447 292.946 229.673 292.74 229.867C292.571 230.031 292.368 230.159 292.144 230.242C292.078 230.272 292.005 230.287 291.932 230.287C291.858 230.287 291.786 230.272 291.719 230.242L291.464 229.867C291.297 229.351 291.297 228.797 291.464 228.281C291.592 228.011 291.781 227.773 292.017 227.585C292.253 227.397 292.529 227.264 292.825 227.197C293.145 227.156 293.47 227.184 293.778 227.278C294.087 227.371 294.371 227.529 294.611 227.739C294.841 227.907 295.024 228.128 295.143 228.383C295.261 228.639 295.313 228.919 295.292 229.199C295.266 229.478 295.179 229.748 295.037 229.992C294.897 230.248 294.692 230.463 294.441 230.618C293.997 230.834 293.493 230.906 293.004 230.824C292.515 230.741 292.065 230.508 291.719 230.158C291.443 229.738 291.322 229.238 291.379 228.74C291.354 228.518 291.354 228.295 291.379 228.073C291.467 227.865 291.581 227.669 291.719 227.489C292.216 226.811 292.938 226.324 293.761 226.112C294.229 226.112 294.356 226.112 294.399 226.112C294.441 226.112 294.654 226.112 294.824 226.488C295.064 226.798 295.237 227.153 295.335 227.531C296.1 227.531 296.185 227.781 296.355 227.864Z" fill="#00625E"/>
<path d="M397.454 391.85C397.454 391.85 397.241 392.225 397.454 392.683C397.623 393.335 397.896 393.953 398.263 394.521C398.742 395.422 399.312 396.273 399.964 397.063C400.842 398.108 401.841 399.045 402.941 399.86C403.236 400.106 403.549 400.327 403.878 400.527L404.9 401.154C405.658 401.618 406.492 401.956 407.366 402.153C408.297 402.279 409.24 402.279 410.174 402.153C411.089 402.07 411.998 401.932 412.894 401.738C413.383 401.633 413.856 401.464 414.298 401.237C414.759 401.04 415.201 400.804 415.618 400.527C416.451 399.986 417.235 399.371 417.955 398.692C418.729 398.047 419.441 397.334 420.083 396.565C420.763 395.797 421.378 394.973 421.913 394.103C422.38 393.304 422.807 392.483 423.189 391.641C423.396 391.239 423.565 390.821 423.7 390.39L424.21 389.139L424.634 387.846C424.784 387.409 424.897 386.963 424.975 386.509C424.975 385.633 425.317 384.717 425.442 383.841C425.571 382.965 425.442 382.089 425.442 381.213V379.919C425.389 379.452 425.289 378.991 425.144 378.542C425.144 377.709 424.549 376.956 424.38 376.289C424.132 375.554 423.85 374.829 423.527 374.119C423.201 373.381 422.722 372.715 422.127 372.161C421.647 371.62 421.089 371.156 420.466 370.784C419.494 370.074 418.438 369.487 417.319 369.032C415.884 368.445 414.361 368.092 412.81 367.987C411.992 367.886 411.161 367.886 410.343 367.987C409.538 368.126 408.761 368.393 408.046 368.78C407.457 369.103 406.902 369.478 406.389 369.908L405.749 370.532L405.452 370.824L405.198 371.159C404.771 371.774 404.414 372.429 404.132 373.12C403.919 373.578 403.794 373.87 403.919 373.996C404.048 374.119 404.345 373.996 404.812 373.704C405.373 373.252 405.897 372.767 406.389 372.244H406.642H406.899L407.536 371.826L408.983 371.033C409.529 370.812 410.099 370.658 410.682 370.575C411.362 370.511 412.045 370.511 412.725 370.575C414.007 370.643 415.27 370.91 416.467 371.368C417.435 371.74 418.347 372.232 419.19 372.828C419.71 373.083 420.184 373.421 420.594 373.827C421.027 374.239 421.387 374.718 421.656 375.247C421.967 375.856 422.236 376.483 422.465 377.125C422.465 377.875 423.104 378.542 423.273 379.252C423.411 379.572 423.512 379.91 423.571 380.254V381.422C423.571 382.215 423.571 383.008 423.571 383.841C423.518 384.664 423.418 385.488 423.273 386.303L423.02 387.554L422.634 388.761C422.634 389.179 422.336 389.554 422.211 389.972C422.083 390.39 421.954 390.808 421.785 391.223C421.478 392.029 421.108 392.809 420.679 393.559C419.713 395.121 418.507 396.528 417.106 397.733C416.442 398.372 415.718 398.944 414.938 399.442C414.577 399.691 414.192 399.9 413.787 400.069C413.411 400.287 412.991 400.429 412.556 400.487C411.725 400.641 410.889 400.751 410.046 400.819C409.256 400.945 408.454 400.945 407.664 400.819C406.959 400.622 406.285 400.327 405.665 399.943L404.728 399.316C404.43 399.316 404.176 398.901 403.878 398.692C402.891 397.927 401.995 397.06 401.199 396.104C400.475 395.271 399.924 394.518 399.413 393.811L398.222 392.351C398.049 391.89 397.84 391.767 397.454 391.85Z" fill="#00625E"/>
<path d="M315.537 378.041C315.537 378.041 315.537 377.248 314.684 376.123C313.835 374.995 312.814 373.412 311.453 371.491C310.092 369.573 308.39 367.321 306.561 364.318C304.449 361.192 302.505 357.962 300.734 354.639C300.201 353.72 299.718 352.773 299.288 351.802C298.863 350.883 298.352 349.924 297.969 348.922C297.161 346.878 296.395 344.752 295.63 342.25C294.895 339.905 294.285 337.523 293.801 335.116C293.431 332.673 293.303 330.198 293.418 327.73V323.56L293.843 319.389C294.184 316.678 294.609 313.964 295.204 311.253C295.658 309.809 295.746 308.275 295.46 306.79C294.815 305.327 293.607 304.173 292.099 303.578L284.486 299.407C282.126 298.147 279.681 297.046 277.17 296.111C275.894 295.652 274.618 295.235 273.342 294.901L269.556 293.942C268.267 293.599 266.961 293.321 265.643 293.107C264.306 292.886 262.957 292.747 261.602 292.69C258.902 292.572 256.206 293.013 253.691 293.983C251.659 295.102 249.337 295.61 247.013 295.443C245.976 295.233 244.993 294.822 244.121 294.234C243.198 293.603 242.416 292.794 241.824 291.856C241.342 291.038 241.089 290.11 241.089 289.165C241.089 288.22 241.342 287.292 241.824 286.474C242.814 284.719 244.288 283.274 246.077 282.303C247.851 281.276 249.772 280.516 251.777 280.05C253.573 279.6 255.412 279.334 257.264 279.257C260.456 279.235 263.635 279.656 266.706 280.509C272.534 281.927 276.829 282.845 279.041 283.22C281.253 283.596 283.295 283.93 285.507 284.138C287.665 284.43 289.855 284.43 292.014 284.138C294.01 283.765 295.83 282.77 297.203 281.301C297.839 280.582 298.291 279.724 298.522 278.799C298.564 278.341 298.564 277.88 298.522 277.422C298.545 276.991 298.545 276.559 298.522 276.129C297.809 274.03 296.458 272.196 294.651 270.872C293.503 270.038 292.865 269.621 292.737 269.704C292.61 269.788 293.12 270.497 294.141 271.623C295.532 273.031 296.49 274.795 296.906 276.713C296.948 276.989 296.948 277.27 296.906 277.547C296.923 277.825 296.923 278.104 296.906 278.381C296.704 279.009 296.355 279.58 295.885 280.05C294.721 281.145 293.23 281.846 291.632 282.052C289.782 282.282 287.91 282.282 286.059 282.052C284.06 281.844 281.806 281.51 279.467 281.093C277.127 280.676 273.257 279.883 267.557 278.548C264.181 277.619 260.684 277.183 257.179 277.255C255.178 277.33 253.193 277.638 251.266 278.173C249.266 278.672 247.337 279.415 245.524 280.384C243.367 281.498 241.537 283.135 240.207 285.14C239.478 286.307 239.092 287.65 239.092 289.019C239.092 290.389 239.478 291.731 240.207 292.899C240.86 293.891 241.697 294.754 242.674 295.443C243.716 296.232 244.921 296.787 246.205 297.07C248.842 297.472 251.54 296.987 253.861 295.694C256.117 294.741 258.55 294.258 261.007 294.275C262.259 294.276 263.509 294.359 264.749 294.526C265.983 294.526 267.259 294.943 268.493 295.235L272.363 296.152C273.639 296.486 274.873 296.82 276.106 297.237C278.572 298.087 280.974 299.105 283.295 300.283C285.89 301.617 288.399 303.036 290.951 304.454C292.182 304.944 293.255 305.751 294.056 306.79C294.481 308.008 294.481 309.329 294.056 310.543C293.46 313.297 292.993 316.051 292.61 318.888L292.142 323.059L291.844 326.98C291.659 329.765 291.759 332.559 292.142 335.325C292.575 337.79 293.158 340.227 293.886 342.625C294.566 344.752 295.204 347.004 296.098 349.174C296.471 350.275 296.926 351.35 297.459 352.386C297.889 353.397 298.372 354.384 298.905 355.349C300.69 358.782 302.679 362.111 304.86 365.32C306.731 368.196 308.518 370.575 310.092 372.619C311.665 374.663 312.899 375.997 313.751 376.79C314.6 377.583 315.365 378.167 315.537 378.041Z" fill="#00625E"/>
<path d="M333.659 217.643C333.659 217.643 334.424 217.643 335.53 217.142C337.097 216.393 338.604 215.529 340.04 214.556C342.305 213.143 344.493 211.611 346.589 209.967C349.331 207.807 351.945 205.495 354.417 203.042C355.097 202.416 355.777 201.665 356.458 200.956C357.138 200.247 357.818 199.58 358.457 198.787C359.989 197.202 361.412 195.515 362.709 193.739C364.029 191.863 365.235 189.913 366.326 187.899C367.388 186.063 368.494 184.061 369.685 181.933L371.302 178.554C371.769 177.428 372.152 176.218 372.622 175.05C373.436 172.655 374.117 170.218 374.662 167.75C375.263 165.227 375.646 162.659 375.812 160.074C376.016 157.437 375.856 154.786 375.342 152.19C374.878 149.807 374.032 147.512 372.835 145.39C372.224 144.315 371.497 143.307 370.663 142.386C369.867 141.472 368.968 140.647 367.984 139.925C365.915 138.47 363.499 137.565 360.967 137.297C358.479 137.002 355.953 137.303 353.609 138.173C351.327 139.148 349.4 140.776 348.078 142.845C347.416 143.858 346.928 144.972 346.633 146.141C346.332 147.37 346.26 148.641 346.42 149.895C346.702 151.897 347.128 153.877 347.695 155.819C348.162 157.639 348.46 159.495 348.589 161.367C348.695 163.243 348.695 165.123 348.589 166.999C348.513 168.666 348.313 170.325 347.993 171.963C347.416 174.747 346.533 177.461 345.358 180.056C343.897 183.412 342.117 186.625 340.04 189.651C338.977 191.236 337.871 192.738 336.68 194.24L333.277 198.411L330.3 202.082L328.936 203.626L328.216 204.419L327.536 205.169C326.304 206.558 324.982 207.868 323.578 209.091C322.644 209.883 322.048 210.301 322.133 210.468C322.218 210.635 322.982 210.468 324.258 209.717C325.959 208.691 327.529 207.472 328.936 206.087L329.576 205.503L330.256 204.877L331.744 203.334L334.978 199.788L338.338 195.617C339.488 194.156 340.763 192.53 341.995 190.694C344.073 187.609 345.853 184.34 347.313 180.932C348.62 178.106 349.576 175.137 350.162 172.088C350.453 170.362 350.638 168.621 350.716 166.874C350.716 165.122 350.716 163.412 350.716 161.492C350.585 159.45 350.256 157.425 349.739 155.443C349.165 153.438 348.695 151.405 348.335 149.353C348.206 148.467 348.206 147.569 348.335 146.683C348.542 145.704 348.899 144.761 349.397 143.888C350.431 142.079 352.004 140.624 353.907 139.717C355.925 138.845 358.128 138.473 360.328 138.632C361.409 138.736 362.478 138.945 363.518 139.258C364.58 139.588 365.596 140.051 366.539 140.634C367.504 141.251 368.388 141.979 369.174 142.804C369.964 143.62 370.663 144.515 371.258 145.473C372.487 147.411 373.364 149.542 373.853 151.772C374.42 154.249 374.649 156.788 374.533 159.323C374.417 161.853 374.06 164.367 373.471 166.832C372.96 169.263 372.293 171.66 371.472 174.008L370.196 177.428L368.708 180.599C367.561 182.643 366.37 184.77 365.05 186.898C363.979 188.823 362.8 190.689 361.519 192.488C360.287 194.126 358.965 195.7 357.564 197.202C356.884 197.953 356.116 198.703 355.395 199.454L353.352 201.54C350.588 204.168 347.952 206.505 345.527 208.382C343.101 210.259 340.977 211.844 339.062 213.179L334.809 216.141C333.659 217.059 333.405 217.476 333.659 217.643Z" fill="#00625E"/>
<path d="M292.735 334.99C292.735 334.99 292.267 334.99 291.629 334.99C290.819 335.482 290.076 336.069 289.418 336.742C288.402 337.79 287.516 338.952 286.78 340.206C285.833 341.817 285.063 343.522 284.484 345.296C284.484 345.797 284.186 346.295 284.058 346.796L283.633 348.339C283.325 349.463 283.098 350.607 282.952 351.759C282.952 353.053 282.952 354.221 282.952 355.349C282.902 356.523 282.643 357.682 282.187 358.77C281.968 359.354 281.712 359.926 281.421 360.479C281.152 361.026 280.824 361.545 280.443 362.022C279.686 362.987 278.647 363.7 277.466 364.066C276.192 364.358 274.868 364.358 273.595 364.066C272.262 363.912 270.95 363.62 269.682 363.19C268.606 362.818 267.682 362.117 267.044 361.189C266.727 360.728 266.483 360.221 266.321 359.686C266.136 359.148 266.036 358.586 266.024 358.017C265.981 357.448 265.981 356.877 266.024 356.308C266.024 355.724 266.024 355.097 266.236 354.556C266.455 353.401 266.739 352.257 267.087 351.135C267.47 350.007 267.81 348.883 268.236 347.841L268.831 346.212C269.067 345.671 269.266 345.111 269.426 344.543C269.767 343.418 270.107 342.459 270.447 341.583C270.788 340.707 271.425 339.831 271.893 338.912L273.382 336.241L274.616 333.865C275.466 332.488 276.402 331.277 277.253 330.109C278.912 327.857 280.23 326.274 280.911 325.521C281.591 324.771 282.229 324.021 282.91 323.268C283.591 322.518 284.314 321.808 284.866 321.141L286.568 319.306L287.291 318.47L287.674 318.095L288.014 317.68C288.652 316.875 289.248 316.039 289.801 315.175C290.183 314.634 290.396 314.256 290.268 314.133C290.141 314.007 289.758 314.133 289.12 314.591C288.29 315.2 287.508 315.87 286.78 316.595L286.44 316.887L286.058 317.219L285.164 317.929L283.293 319.681L281.294 321.682C280.515 322.438 279.777 323.231 279.082 324.061C278.401 324.854 277.125 326.44 275.467 328.732C274.464 330.063 273.555 331.456 272.744 332.906L271.468 335.365C271.085 336.201 270.66 336.994 270.192 337.87C269.724 338.746 269.214 339.705 268.703 340.747C268.271 341.826 267.902 342.926 267.598 344.045C267.467 344.537 267.311 345.025 267.13 345.505C266.917 346.046 266.747 346.587 266.577 347.131C266.407 347.672 265.811 349.384 265.471 350.551C265.107 351.726 264.837 352.924 264.663 354.138C264.55 354.759 264.479 355.386 264.45 356.016C264.407 356.656 264.407 357.295 264.45 357.934C264.48 358.613 264.594 359.286 264.79 359.938C265.001 360.599 265.301 361.232 265.683 361.816C266.454 362.99 267.586 363.897 268.916 364.401C270.286 364.899 271.716 365.221 273.169 365.36C274.573 365.636 276.019 365.636 277.423 365.36C278.869 364.988 280.161 364.189 281.123 363.067C281.597 362.526 282.01 361.939 282.357 361.315C282.697 360.753 282.995 360.165 283.25 359.563C283.784 358.309 284.128 356.991 284.271 355.641C284.271 354.304 284.271 353.136 284.484 352.094C284.624 351.034 284.852 349.989 285.164 348.966L285.632 347.38L286.1 345.963C286.665 344.285 287.392 342.665 288.269 341.122C288.968 339.945 289.749 338.817 290.609 337.744L292.31 335.783C292.693 335.617 292.863 335.156 292.735 334.99Z" fill="#00625E"/>
<path opacity="0.25" d="M91.3147 88.6821C78.5594 93.7061 79.0204 107.472 95.3615 106.065C110.375 104.409 125.53 104.409 140.543 106.065C157.054 108.608 173.845 108.896 190.437 106.92C201.008 105.642 211.684 105.423 222.299 106.266C238.026 107.221 236.899 93.5051 225.219 90.1891C218.107 88.4568 211.498 85.1387 205.907 80.4927C194.484 71.0979 188.132 68.7866 175.172 71.8512C172.052 72.7007 168.762 72.7539 165.616 72.0067C162.469 71.2592 159.569 69.736 157.191 67.5808C144.795 57.5327 128.3 56.3269 113.905 72.6048C108.25 80.1245 100.358 85.7411 91.3147 88.6821Z" fill="#B2D7DB"/>
<g opacity="0.25">
<path opacity="0.25" d="M523.87 195.863C522.012 193.494 520.616 190.704 519.773 187.676C518.929 184.648 518.659 181.451 518.981 178.295C519.218 161.269 510.763 149.583 493.41 151.208C489.981 151.723 486.495 151.458 483.154 150.428C479.814 149.399 476.687 147.625 473.951 145.21C454.461 128.725 430.69 139.831 427.09 167.46C426.544 174.58 423.599 181.182 418.872 185.879C395.95 211.535 404.168 251.933 440.945 260.756C446.351 262.152 451.326 265.187 455.344 269.54C458.724 272.61 462.69 274.73 466.923 275.731C467.418 291.608 466.622 307.502 464.547 323.211C469.877 323.211 474.36 323.211 478.401 323.211C476.164 307.547 475.345 291.663 475.956 275.809C480.254 274.929 484.293 272.841 487.706 269.734C490.864 266.721 494.698 264.777 498.776 264.122C510.796 261.53 516.333 254.836 517.554 241.447C517.762 236.702 519.476 232.205 522.376 228.793C524.418 226.777 526.082 224.311 527.268 221.544C528.454 218.777 529.136 215.766 529.277 212.691C529.416 209.616 529.009 206.54 528.081 203.648C527.152 200.757 525.719 198.108 523.87 195.863Z" fill="#00625E"/>
</g>
<g clip-path="url(#clip0_97_199)">
<path d="M156.461 137.005C152.142 134.652 147.856 135.232 145.601 138.455C142.775 142.484 143.442 150.8 153.921 161.662C153.454 161.542 152.962 161.568 152.51 161.734C152.057 161.901 151.664 162.201 151.38 162.596C151.192 162.853 151.056 163.145 150.981 163.455C150.906 163.766 150.893 164.089 150.944 164.404C150.994 164.72 151.106 165.022 151.274 165.293C151.442 165.564 151.662 165.798 151.92 165.98H152.111C153.693 166.836 155.38 167.476 157.128 167.882C158.652 168.333 160.112 168.752 161.573 169.236C164.477 170.203 167.31 171.377 170.051 172.749C170.499 172.963 171.011 172.992 171.479 172.829C171.947 172.667 172.335 172.326 172.56 171.879C172.733 171.444 172.733 170.959 172.56 170.525C174.299 170.538 176.009 170.067 177.503 169.164C178.998 168.26 180.22 166.959 181.038 165.4C181.644 164.175 181.798 162.77 181.472 161.44C181.145 160.11 180.361 158.942 179.26 158.148C177.731 157.199 175.903 156.876 174.147 157.246C179.577 146.9 176.18 139.938 174.687 137.65C173.339 135.368 171.261 133.624 168.799 132.71C166.338 131.795 163.642 131.764 161.16 132.622C159.16 133.517 157.508 135.058 156.461 137.005Z" fill="white"/>
<path d="M156.59 143.741C156.757 150.175 158.193 156.51 160.813 162.371C156.77 159.345 153.502 155.377 151.287 150.8C148.493 144.354 151.287 141.131 154.272 141.292C154.593 141.259 154.917 141.301 155.219 141.414C155.521 141.527 155.795 141.709 156.018 141.945C156.241 142.181 156.409 142.465 156.508 142.776C156.607 143.087 156.635 143.417 156.59 143.741ZM159.766 145.192C159.956 129.753 186.121 139.712 169.292 162.951C179.675 154.571 183.041 167.527 172.689 167.302C166.91 167.302 164.529 165.658 163.163 161.79C161.358 156.423 160.227 150.846 159.797 145.192H159.766Z" fill="#4AAE42"/>
<path d="M174.243 171.621C174.214 171.692 174.166 171.754 174.104 171.8C174.042 171.845 173.969 171.873 173.893 171.879C173.718 171.933 173.53 171.933 173.354 171.879L172.592 171.589L171.607 171.137H171.353H171.067C170.845 171.096 170.631 171.02 170.432 170.912C170.227 170.757 170.036 170.585 169.861 170.396C169.679 170.243 169.46 170.142 169.226 170.106C169.099 170.121 168.971 170.121 168.845 170.106L168.495 169.913C168.273 169.913 168.051 169.655 167.797 169.558L167.035 169.268L166.304 168.946L165.606 168.656H165.288H164.939H164.558H164.209L163.542 168.43L162.907 168.172H162.589C162.44 168.181 162.292 168.139 162.17 168.053C162.047 167.966 161.956 167.84 161.912 167.695C161.869 167.551 161.874 167.395 161.928 167.253C161.981 167.112 162.08 166.993 162.208 166.915C162.063 166.756 161.891 166.625 161.7 166.528C161.519 166.445 161.326 166.391 161.129 166.367C160.929 166.317 160.737 166.241 160.557 166.142L160.081 165.851C159.807 165.721 159.519 165.624 159.223 165.561L158.112 165.142L157.572 164.949L157.032 164.691L156.62 164.401V164.24C156.472 164.013 156.365 163.762 156.302 163.499C156.256 163.352 156.256 163.194 156.302 163.048C156.338 162.996 156.386 162.955 156.441 162.927C156.497 162.899 156.558 162.885 156.62 162.886C156.821 162.93 157.014 163.006 157.191 163.112H157.572L158.08 163.273L158.588 163.434C158.746 163.502 158.896 163.588 159.033 163.692L160.081 164.143C160.388 164.23 160.686 164.349 160.97 164.498L161.414 164.852C161.56 164.953 161.721 165.029 161.891 165.078L162.494 165.304C162.685 165.427 162.856 165.579 163.002 165.755L163.256 165.98H163.542L164.177 166.303L164.812 166.625H165.13L165.384 166.915L165.733 167.076L166.051 167.237L166.717 167.592L167.416 167.979L168.178 168.301L168.908 168.623L169.257 168.785H169.607C169.865 168.796 170.116 168.873 170.337 169.01C170.559 169.01 170.718 169.332 170.909 169.429C171.114 169.513 171.327 169.577 171.544 169.622H171.861H172.147C172.497 169.731 172.837 169.871 173.163 170.042C173.419 170.17 173.663 170.321 173.893 170.493C174.04 170.616 174.159 170.77 174.243 170.944C174.302 170.977 174.352 171.026 174.386 171.086C174.421 171.145 174.439 171.213 174.439 171.282C174.439 171.351 174.421 171.419 174.386 171.479C174.352 171.538 174.302 171.587 174.243 171.621Z" fill="#014E72"/>
<path d="M164.941 164.917C164.772 164.917 164.549 164.756 164.274 164.433C163.884 163.869 163.554 163.264 163.29 162.628C162.941 161.887 162.528 160.888 162.115 159.728C161.702 158.567 161.321 157.246 160.94 155.763L160.654 154.667L160.368 153.539C160.123 152.702 159.922 151.852 159.765 150.993C159.645 150.095 159.571 149.192 159.543 148.286C159.543 147.448 159.321 146.545 159.257 145.578C159.193 145.076 159.193 144.566 159.257 144.064V142.549C159.388 141.531 159.612 140.528 159.924 139.551C160.221 138.53 160.694 137.569 161.321 136.715C161.959 135.815 162.783 135.067 163.734 134.523C164.599 134.036 165.547 133.718 166.529 133.589C167.015 133.557 167.503 133.557 167.989 133.589C168.464 133.539 168.943 133.539 169.418 133.589C169.907 133.664 170.386 133.794 170.847 133.975C171.316 134.12 171.764 134.326 172.181 134.588C173.034 135.035 173.815 135.611 174.499 136.296C175.178 136.946 175.785 137.67 176.309 138.455C176.531 138.842 176.785 139.261 176.976 139.648C177.186 140.093 177.356 140.557 177.484 141.034C177.679 141.841 177.827 142.659 177.928 143.483C178.077 144.259 178.162 145.046 178.182 145.836C178.294 146.638 178.294 147.452 178.182 148.253C178.068 148.951 177.909 149.64 177.706 150.316C177.388 151.509 177.039 152.669 176.69 153.733C176.109 155.139 175.44 156.506 174.689 157.826C174.34 158.503 173.895 159.115 173.483 159.792C173.098 160.437 172.651 161.041 172.149 161.597L170.91 163.015L170.339 163.627L170.022 163.918L169.704 164.175C169.112 164.652 168.486 165.083 167.831 165.465C167.386 165.722 167.1 165.851 167.005 165.755C166.91 165.658 167.005 165.368 167.386 164.917C167.853 164.341 168.351 163.792 168.878 163.273L169.101 163.015L169.323 162.725L169.799 162.048L170.879 160.566C171.303 160.046 171.676 159.484 171.99 158.89C172.34 158.277 172.816 157.633 173.197 156.891C173.898 155.686 174.524 154.437 175.07 153.153C175.473 152.097 175.823 151.021 176.118 149.93C176.321 149.316 176.49 148.692 176.626 148.06C176.707 147.407 176.707 146.747 176.626 146.094C176.623 145.349 176.559 144.605 176.436 143.87C176.436 143.032 176.213 142.259 176.086 141.485C175.989 141.135 175.873 140.791 175.737 140.454C175.578 140.083 175.387 139.727 175.166 139.39C174.761 138.667 174.259 138.005 173.673 137.424C173.098 136.792 172.435 136.249 171.704 135.813C171.323 135.619 170.974 135.394 170.561 135.232C170.172 135.065 169.768 134.936 169.355 134.846C168.94 134.732 168.514 134.667 168.084 134.652C167.652 134.604 167.215 134.604 166.783 134.652C165.934 134.706 165.104 134.925 164.338 135.297C163.5 135.75 162.756 136.363 162.147 137.102C161.577 137.872 161.137 138.732 160.845 139.648C160.543 140.559 160.33 141.498 160.21 142.452V143.902C160.163 144.352 160.163 144.806 160.21 145.256L160.591 148.06C160.619 148.935 160.704 149.807 160.845 150.671C161.012 151.467 161.224 152.252 161.48 153.024L161.797 154.216L162.115 155.344C162.528 156.795 162.94 158.084 163.321 159.244L164.338 162.209C164.623 163.047 164.814 163.66 164.941 164.111C165.068 164.562 165.068 164.852 164.941 164.917Z" fill="#014E72"/>
<path d="M156.527 137.295C155.927 137.199 155.317 137.199 154.717 137.295C154.123 137.361 153.544 137.525 153.002 137.779C152.452 138.026 151.938 138.352 151.478 138.746C151.074 139.182 150.712 139.657 150.399 140.164C150.105 140.668 149.881 141.21 149.732 141.775C149.553 142.298 149.425 142.838 149.351 143.387C149.318 143.945 149.318 144.505 149.351 145.063C149.378 145.648 149.452 146.23 149.573 146.803C149.843 147.783 150.182 148.742 150.589 149.672C150.97 150.51 151.224 151.445 151.669 152.282L152.336 153.539C152.539 153.927 152.761 154.303 153.002 154.668C153.863 155.975 154.807 157.224 155.828 158.406C156.61 159.329 157.459 160.191 158.368 160.985C159.131 161.629 159.734 162.081 160.147 162.371C160.559 162.661 160.845 162.725 160.941 162.628C161.036 162.532 160.941 162.209 160.623 161.758C160.306 161.307 159.766 160.791 159.131 160.114C158.496 159.438 157.702 158.567 156.844 157.568C155.86 156.447 154.948 155.263 154.114 154.023C153.873 153.681 153.65 153.326 153.447 152.959L152.843 151.863C152.42 151.035 152.038 150.185 151.7 149.317C151.286 148.438 150.926 147.534 150.621 146.61C150.443 145.662 150.443 144.689 150.621 143.741C150.656 143.227 150.752 142.718 150.907 142.227C151.014 141.733 151.185 141.256 151.415 140.808C151.883 139.907 152.615 139.175 153.51 138.713C154.443 138.279 155.475 138.111 156.495 138.23C157.67 138.23 158.559 138.584 158.845 138.23C159.131 137.875 158.369 137.682 156.527 137.295Z" fill="#014E72"/>
<path d="M169.672 167.076C169.672 166.915 169.863 166.818 170.085 166.786C170.391 166.756 170.7 166.756 171.006 166.786C171.457 166.877 171.913 166.942 172.372 166.979C172.974 167.017 173.579 167.017 174.182 166.979C174.351 166.995 174.521 166.995 174.69 166.979H175.166L176.277 166.818C176.69 166.818 177.103 166.818 177.484 166.818C177.866 166.767 178.234 166.635 178.564 166.431L179.135 166.109L179.707 165.819C180.07 165.611 180.401 165.35 180.691 165.045C180.999 164.754 181.248 164.404 181.421 164.014C181.642 163.66 181.793 163.266 181.866 162.854C181.945 162.493 181.945 162.119 181.866 161.758C181.836 161.398 181.691 161.059 181.453 160.791C181.362 160.65 181.243 160.529 181.104 160.436L180.691 160.114C180.424 159.931 180.12 159.81 179.802 159.76C179.465 159.713 179.123 159.713 178.786 159.76H178.278C178.088 159.776 177.896 159.776 177.706 159.76C177.38 159.708 177.048 159.708 176.722 159.76C176.411 159.866 176.113 160.007 175.833 160.179L174.944 160.63C174.658 160.722 174.382 160.841 174.118 160.984C173.668 161.229 173.252 161.532 172.88 161.887C172.118 162.435 171.641 162.918 171.355 163.144C171.09 163.343 170.845 163.57 170.625 163.821C170.398 164.054 170.154 164.269 169.895 164.465L169.196 164.949L168.91 165.174H168.752H168.561C168.219 165.342 167.856 165.461 167.482 165.529C167.227 165.529 167.037 165.529 166.974 165.529C166.91 165.529 166.974 165.271 166.974 165.045C167.191 164.763 167.435 164.504 167.704 164.272V164.111L167.958 163.821C168.142 163.59 168.344 163.374 168.561 163.176L169.228 162.467C169.469 162.175 169.734 161.906 170.022 161.661C170.308 161.468 170.847 160.984 171.641 160.436C172.074 160.052 172.554 159.727 173.07 159.47L173.991 159.115C174.309 159.002 174.617 158.862 174.912 158.696L175.992 158.245C176.414 158.198 176.839 158.198 177.262 158.245H178.468C178.92 158.246 179.368 158.311 179.802 158.438C180.262 158.534 180.696 158.732 181.072 159.018C181.283 159.14 181.476 159.292 181.644 159.47C181.826 159.629 181.987 159.814 182.12 160.018C182.277 160.224 182.405 160.452 182.501 160.694C182.598 160.931 182.662 161.181 182.691 161.436C182.787 161.925 182.787 162.429 182.691 162.918C182.607 163.443 182.424 163.947 182.152 164.401C181.921 164.854 181.621 165.268 181.262 165.626C180.928 166 180.543 166.326 180.119 166.593L179.484 166.947L178.913 167.269C178.516 167.56 178.06 167.758 177.579 167.85C177.156 167.88 176.732 167.88 176.309 167.85L175.166 168.075H174.563H174.023C173.367 168.129 172.709 168.129 172.054 168.075C171.557 168.006 171.068 167.888 170.593 167.721C170.286 167.602 169.998 167.439 169.736 167.237C169.704 167.189 169.682 167.134 169.672 167.076Z" fill="#014E72"/>
</g>
<g opacity="0.25">
<path opacity="0.25" d="M165.559 293.551C176.821 299.365 176.429 315.542 161.937 313.941C148.672 312.005 135.28 312.005 122.011 313.941C107.408 316.941 92.5557 317.281 77.8815 314.952C68.5393 313.514 59.114 313.26 49.7323 314.193C35.822 315.289 36.7919 299.196 47.1474 295.32C53.4454 293.328 59.3001 289.432 64.2285 283.946C74.3227 272.909 79.9518 270.212 91.4711 273.835C94.2341 274.805 97.1437 274.85 99.9265 273.966C102.709 273.083 105.275 271.299 107.388 268.78C118.326 256.731 132.881 255.636 145.564 274.678C150.576 283.502 157.563 290.093 165.559 293.551Z" fill="#00625E"/>
</g>
<defs>
<clipPath id="clip0_97_199">
<rect width="39" height="41" fill="white" transform="translate(144 132)"/>
</clipPath>
</defs>
</svg>
