<svg width="42" height="42" viewBox="0 0 42 42" fill="none" xmlns="http://www.w3.org/2000/svg">
<g clip-path="url(#clip0_97_124)">
<path d="M41.1628 10.8246C40.9254 9.93106 40.4574 9.11558 39.8058 8.45974C39.1541 7.8039 38.3416 7.33072 37.4497 7.08754C34.166 6.20459 21.041 6.20459 21.041 6.20459C21.041 6.20459 7.91602 6.20459 4.63238 7.08754C3.74039 7.33072 2.92792 7.8039 2.27627 8.45974C1.62462 9.11558 1.15665 9.93106 0.919198 10.8246C0.0410157 14.1225 0.0410156 21 0.0410156 21C0.0410156 21 0.0410157 27.8775 0.919198 31.1755C1.15665 32.069 1.62462 32.8845 2.27627 33.5403C2.92792 34.1962 3.74039 34.6694 4.63238 34.9125C7.91602 35.7955 21.041 35.7955 21.041 35.7955C21.041 35.7955 34.166 35.7955 37.4497 34.9125C38.3416 34.6694 39.1541 34.1962 39.8058 33.5403C40.4574 32.8845 40.9254 32.069 41.1628 31.1755C42.041 27.8775 42.041 21 42.041 21C42.041 21 42.041 14.1225 41.1628 10.8246Z" fill="#68A39C"/>
<path d="M16.7461 27.2451V14.7549L27.7234 21L16.7461 27.2451Z" fill="#FEFEFE"/>
</g>
<defs>
<clipPath id="clip0_97_124">
<rect width="42" height="42" fill="white"/>
</clipPath>
</defs>
</svg>
