<svg width="57" height="57" viewBox="0 0 57 57" fill="none" xmlns="http://www.w3.org/2000/svg">
<g clip-path="url(#clip0_79_476)">
<path d="M55.8648 14.6904C55.5426 13.4778 54.9075 12.371 54.0231 11.481C53.1387 10.5909 52.0361 9.94872 50.8255 9.61871C46.3691 8.42041 28.5566 8.42041 28.5566 8.42041C28.5566 8.42041 10.7441 8.42041 6.28778 9.61871C5.07722 9.94872 3.97458 10.5909 3.0902 11.481C2.20582 12.371 1.57072 13.4778 1.24846 14.6904C0.0566408 19.1662 0.0566406 28.5 0.0566406 28.5C0.0566406 28.5 0.0566408 37.8337 1.24846 42.3095C1.57072 43.5221 2.20582 44.6289 3.0902 45.5189C3.97458 46.409 5.07722 47.0512 6.28778 47.3812C10.7441 48.5795 28.5566 48.5795 28.5566 48.5795C28.5566 48.5795 46.3691 48.5795 50.8255 47.3812C52.0361 47.0512 53.1387 46.409 54.0231 45.5189C54.9075 44.6289 55.5426 43.5221 55.8648 42.3095C57.0566 37.8337 57.0566 28.5 57.0566 28.5C57.0566 28.5 57.0566 19.1662 55.8648 14.6904Z" fill="#68A39C"/>
<path d="M22.7266 36.9754V20.0244L37.6243 28.4999L22.7266 36.9754Z" fill="#FEFEFE"/>
</g>
<defs>
<clipPath id="clip0_79_476">
<rect width="57" height="57" fill="white"/>
</clipPath>
</defs>
</svg>
